<svg width="160" height="28" viewBox="0 0 160 28" fill="none" xmlns="http://www.w3.org/2000/svg">
<path fill-rule="evenodd" clip-rule="evenodd" d="M0.916382 0.865234H2.37457V27.3703H0.916382V0.865234Z" fill="#435162"/>
<path fill-rule="evenodd" clip-rule="evenodd" d="M43.2039 0.865234H44.6621V27.3703H43.2039V0.865234Z" fill="#435162"/>
<path fill-rule="evenodd" clip-rule="evenodd" d="M5.29095 0.865234H6.74915V14.4759H5.29095V0.865234Z" fill="#435162"/>
<path fill-rule="evenodd" clip-rule="evenodd" d="M38.1002 0.865234H39.5584V14.4759H38.1002V0.865234Z" fill="#435162"/>
<path fill-rule="evenodd" clip-rule="evenodd" d="M24.9766 0.865234H26.4348V14.4759H24.9766V0.865234Z" fill="#435162"/>
<rect x="8.9364" y="0.865234" width="1.45819" height="13.6107" fill="#435162"/>
<rect x="28.622" y="0.865234" width="1.45819" height="13.6107" fill="#435162"/>
<path fill-rule="evenodd" clip-rule="evenodd" d="M15.4983 0.865234H16.9565V14.4759H15.4983V0.865234Z" fill="#435162"/>
<path fill-rule="evenodd" clip-rule="evenodd" d="M19.8729 0.865234H22.0602V14.4759H19.8729V0.865234Z" fill="#435162"/>
<path fill-rule="evenodd" clip-rule="evenodd" d="M35.1838 0.865234H37.3711V14.4759H35.1838V0.865234Z" fill="#435162"/>
<path fill-rule="evenodd" clip-rule="evenodd" d="M7.47827 0.865234H8.20737V14.4759H7.47827V0.865234Z" fill="#435162"/>
<path fill-rule="evenodd" clip-rule="evenodd" d="M27.1638 0.865234H27.8929V14.4759H27.1638V0.865234Z" fill="#435162"/>
<path fill-rule="evenodd" clip-rule="evenodd" d="M11.1237 0.865234H11.8528V14.4759H11.1237V0.865234Z" fill="#435162"/>
<path fill-rule="evenodd" clip-rule="evenodd" d="M30.8093 0.865234H31.5384V14.4759H30.8093V0.865234Z" fill="#435162"/>
<path fill-rule="evenodd" clip-rule="evenodd" d="M13.311 0.865234H14.0401V14.4759H13.311V0.865234Z" fill="#435162"/>
<path fill-rule="evenodd" clip-rule="evenodd" d="M32.9966 0.865234H33.7257V14.4759H32.9966V0.865234Z" fill="#435162"/>
<path fill-rule="evenodd" clip-rule="evenodd" d="M40.2875 0.865234H41.0166V14.4759H40.2875V0.865234Z" fill="#435162"/>
<path fill-rule="evenodd" clip-rule="evenodd" d="M17.6855 0.865234H18.4146V14.4759H17.6855V0.865234Z" fill="#435162"/>
<path fill-rule="evenodd" clip-rule="evenodd" d="M22.7892 0.865234H23.5183V14.4759H22.7892V0.865234Z" fill="#435162"/>
<path fill-rule="evenodd" clip-rule="evenodd" d="M3.10364 0.865234H3.83273V27.3703H3.10364V0.865234Z" fill="#435162"/>
<path fill-rule="evenodd" clip-rule="evenodd" d="M41.7457 0.865234H42.4748V27.3703H41.7457V0.865234Z" fill="#435162"/>
<path fill-rule="evenodd" clip-rule="evenodd" d="M5.84631 24.5049V18.3935H8.02506C8.77979 18.3935 9.35224 18.5355 9.74242 18.8196C10.1326 19.1036 10.3277 19.5198 10.3277 20.0683C10.3277 20.3677 10.2494 20.6314 10.0927 20.8595C9.93608 21.0875 9.71821 21.2547 9.4391 21.3611C9.75808 21.4394 10.0094 21.5975 10.1931 21.8354C10.3768 22.0732 10.4687 22.3642 10.4687 22.7084C10.4687 23.2961 10.2778 23.741 9.89621 24.0432C9.51457 24.3454 8.97061 24.4993 8.26429 24.5049H5.84631ZM7.12793 21.8438V23.4933H8.22584C8.52773 23.4933 8.76341 23.4227 8.93287 23.2814C9.10232 23.1401 9.18705 22.9449 9.18705 22.6958C9.18705 22.1362 8.89228 21.8522 8.30274 21.8438H7.12793ZM7.12793 20.9539H8.07632C8.72283 20.9427 9.04607 20.6895 9.04607 20.1942C9.04607 19.9172 8.96419 19.7178 8.80043 19.5961C8.63667 19.4743 8.37821 19.4135 8.02506 19.4135H7.12793V20.9539ZM16.9038 21.5877C16.9038 22.1894 16.7956 22.7168 16.5791 23.1701C16.3627 23.6235 16.0529 23.9732 15.6499 24.2195C15.2469 24.4657 14.7849 24.5888 14.2637 24.5888C13.7482 24.5888 13.2882 24.4671 12.8838 24.2237C12.4794 23.9802 12.1661 23.6325 11.9439 23.1806C11.7218 22.7287 11.6093 22.2089 11.6065 21.6213V21.3191C11.6065 20.7175 11.7168 20.1879 11.9375 19.7304C12.1583 19.2729 12.4701 18.9217 12.8731 18.6768C13.2761 18.432 13.7368 18.3096 14.2551 18.3096C14.7735 18.3096 15.2341 18.432 15.6371 18.6768C16.0401 18.9217 16.352 19.2729 16.5727 19.7304C16.7934 20.1879 16.9038 20.7161 16.9038 21.3149V21.5877ZM15.6051 21.3107C15.6051 20.6699 15.4883 20.183 15.2548 19.85C15.0212 19.517 14.688 19.3505 14.2551 19.3505C13.8251 19.3505 13.4933 19.5149 13.2597 19.8437C13.0262 20.1725 12.908 20.6545 12.9052 21.2897V21.5877C12.9052 22.2117 13.0219 22.6958 13.2555 23.04C13.489 23.3842 13.8251 23.5563 14.2637 23.5563C14.6937 23.5563 15.0241 23.3905 15.2548 23.0589C15.4855 22.7273 15.6022 22.2439 15.6051 21.6087V21.3107ZM19.4813 23.4933H22.2025V24.5049H18.1996V18.3935H19.4813V23.4933ZM27.0442 21.8564H24.5835V23.4933H27.4714V24.5049H23.3019V18.3935H27.4629V19.4135H24.5835V20.87H27.0442V21.8564ZM33.3554 19.4135H31.4501V24.5049H30.1685V19.4135H28.2888V18.3935H33.3554V19.4135ZM39.4402 21.5877C39.4402 22.1894 39.332 22.7168 39.1156 23.1701C38.8991 23.6235 38.5894 23.9732 38.1864 24.2195C37.7834 24.4657 37.3213 24.5888 36.8001 24.5888C36.2846 24.5888 35.8247 24.4671 35.4202 24.2237C35.0158 23.9802 34.7025 23.6325 34.4804 23.1806C34.2583 22.7287 34.1458 22.2089 34.1429 21.6213V21.3191C34.1429 20.7175 34.2533 20.1879 34.474 19.7304C34.6947 19.2729 35.0066 18.9217 35.4096 18.6768C35.8126 18.432 36.2732 18.3096 36.7916 18.3096C37.3099 18.3096 37.7706 18.432 38.1736 18.6768C38.5766 18.9217 38.8884 19.2729 39.1092 19.7304C39.3299 20.1879 39.4402 20.7161 39.4402 21.3149V21.5877ZM38.1415 21.3107C38.1415 20.6699 38.0248 20.183 37.7912 19.85C37.5577 19.517 37.2245 19.3505 36.7916 19.3505C36.3615 19.3505 36.0297 19.5149 35.7962 19.8437C35.5626 20.1725 35.4445 20.6545 35.4416 21.2897V21.5877C35.4416 22.2117 35.5584 22.6958 35.7919 23.04C36.0255 23.3842 36.3615 23.5563 36.8001 23.5563C37.2302 23.5563 37.5605 23.3905 37.7912 23.0589C38.0219 22.7273 38.1387 22.2439 38.1415 21.6087V21.3107Z" fill="#435162"/>
<g clip-path="url(#clip0_959_35)">
<path fill-rule="evenodd" clip-rule="evenodd" d="M55.187 11.1235L60.796 5.46749C61.782 4.47383 63.078 4 64.372 4H157.189C158.739 4 160 5.25356 160 6.81402V21.186C160 22.7464 158.739 24 157.189 24H64.372C63.078 24 61.782 23.5252 60.796 22.5315L55.187 16.8755C54.399 16.0818 54 15.0471 54 14.0065C54 12.9659 54.399 11.9182 55.187 11.1235ZM63.114 15.9838C64.199 15.9838 65.079 15.0981 65.079 14.0065C65.079 12.9149 64.199 12.0302 63.114 12.0302C62.028 12.0302 61.149 12.9149 61.149 14.0065C61.149 15.0981 62.028 15.9838 63.114 15.9838Z" fill="#68629C"/>
<path d="M75.2637 12.7676C76.166 12.7676 76.875 12.9922 77.3906 13.4414C77.9102 13.8867 78.1699 14.498 78.1699 15.2754C78.1699 16.1621 77.8867 16.8574 77.3203 17.3613C76.7578 17.8652 75.9805 18.1172 74.9883 18.1172C74.0234 18.1172 73.2871 17.9629 72.7793 17.6543V16.7168C73.0527 16.8926 73.3926 17.0312 73.7988 17.1328C74.2051 17.2305 74.6055 17.2793 75 17.2793C75.6875 17.2793 76.2207 17.1172 76.5996 16.793C76.9824 16.4688 77.1738 16 77.1738 15.3867C77.1738 14.1914 76.4414 13.5938 74.9766 13.5938C74.6055 13.5938 74.1094 13.6504 73.4883 13.7637L72.9844 13.4414L73.3066 9.43359H77.5664V10.3301H74.1387L73.9219 12.9023C74.3711 12.8125 74.8184 12.7676 75.2637 12.7676ZM80.2852 11.9883C80.2852 12.6523 80.3574 13.1504 80.502 13.4824C80.6465 13.8145 80.8809 13.9805 81.2051 13.9805C81.8457 13.9805 82.166 13.3164 82.166 11.9883C82.166 10.668 81.8457 10.0078 81.2051 10.0078C80.8809 10.0078 80.6465 10.1719 80.502 10.5C80.3574 10.8281 80.2852 11.3242 80.2852 11.9883ZM82.9688 11.9883C82.9688 12.8789 82.8184 13.5527 82.5176 14.0098C82.2207 14.4629 81.7832 14.6895 81.2051 14.6895C80.6582 14.6895 80.2324 14.457 79.9277 13.9922C79.627 13.5273 79.4766 12.8594 79.4766 11.9883C79.4766 11.1016 79.6211 10.4336 79.9102 9.98438C80.2031 9.53516 80.6348 9.31055 81.2051 9.31055C81.7715 9.31055 82.207 9.54297 82.5117 10.0078C82.8164 10.4727 82.9688 11.1328 82.9688 11.9883ZM85.4414 15.4219C85.4414 16.0898 85.5137 16.5898 85.6582 16.9219C85.8027 17.25 86.0391 17.4141 86.3672 17.4141C86.6953 17.4141 86.9375 17.252 87.0938 16.9277C87.25 16.5996 87.3281 16.0977 87.3281 15.4219C87.3281 14.7539 87.25 14.2598 87.0938 13.9395C86.9375 13.6152 86.6953 13.4531 86.3672 13.4531C86.0391 13.4531 85.8027 13.6152 85.6582 13.9395C85.5137 14.2598 85.4414 14.7539 85.4414 15.4219ZM88.1309 15.4219C88.1309 16.3086 87.9805 16.9805 87.6797 17.4375C87.3828 17.8906 86.9453 18.1172 86.3672 18.1172C85.8125 18.1172 85.3848 17.8848 85.084 17.4199C84.7871 16.9551 84.6387 16.2891 84.6387 15.4219C84.6387 14.5352 84.7832 13.8672 85.0723 13.418C85.3652 12.9688 85.7969 12.7441 86.3672 12.7441C86.9219 12.7441 87.3535 12.9746 87.6621 13.4355C87.9746 13.8926 88.1309 14.5547 88.1309 15.4219ZM86.6191 9.43359L81.8672 18H81.0059L85.7578 9.43359H86.6191ZM99.8789 13.6348C99.8789 15.0488 99.4941 16.1309 98.7246 16.8809C97.959 17.627 96.8555 18 95.4141 18H93.041V9.43359H95.666C96.998 9.43359 98.0332 9.80273 98.7715 10.541C99.5098 11.2793 99.8789 12.3105 99.8789 13.6348ZM98.8242 13.6699C98.8242 12.5527 98.543 11.7109 97.9805 11.1445C97.4219 10.5781 96.5898 10.2949 95.4844 10.2949H94.0371V17.1387H95.25C96.4375 17.1387 97.3301 16.8477 97.9277 16.2656C98.5254 15.6797 98.8242 14.8145 98.8242 13.6699ZM106.57 18H101.795V9.43359H106.57V10.3184H102.791V13.0781H106.342V13.957H102.791V17.1094H106.57V18ZM113.309 15.7207C113.309 16.4746 113.035 17.0625 112.488 17.4844C111.941 17.9062 111.199 18.1172 110.262 18.1172C109.246 18.1172 108.465 17.9863 107.918 17.7246V16.7637C108.27 16.9121 108.652 17.0293 109.066 17.1152C109.48 17.2012 109.891 17.2441 110.297 17.2441C110.961 17.2441 111.461 17.1191 111.797 16.8691C112.133 16.6152 112.301 16.2637 112.301 15.8145C112.301 15.5176 112.24 15.2754 112.119 15.0879C112.002 14.8965 111.803 14.7207 111.521 14.5605C111.244 14.4004 110.82 14.2188 110.25 14.0156C109.453 13.7305 108.883 13.3926 108.539 13.002C108.199 12.6113 108.029 12.1016 108.029 11.4727C108.029 10.8125 108.277 10.2871 108.773 9.89648C109.27 9.50586 109.926 9.31055 110.742 9.31055C111.594 9.31055 112.377 9.4668 113.092 9.7793L112.781 10.6465C112.074 10.3496 111.387 10.2012 110.719 10.2012C110.191 10.2012 109.779 10.3145 109.482 10.541C109.186 10.7676 109.037 11.082 109.037 11.4844C109.037 11.7812 109.092 12.0254 109.201 12.2168C109.311 12.4043 109.494 12.5781 109.752 12.7383C110.014 12.8945 110.412 13.0684 110.947 13.2598C111.846 13.5801 112.463 13.9238 112.799 14.291C113.139 14.6582 113.309 15.1348 113.309 15.7207ZM118.729 10.2012C117.787 10.2012 117.043 10.5156 116.496 11.1445C115.953 11.7695 115.682 12.627 115.682 13.7168C115.682 14.8379 115.943 15.7051 116.467 16.3184C116.994 16.9277 117.744 17.2324 118.717 17.2324C119.314 17.2324 119.996 17.125 120.762 16.9102V17.7832C120.168 18.0059 119.436 18.1172 118.564 18.1172C117.303 18.1172 116.328 17.7344 115.641 16.9688C114.957 16.2031 114.615 15.1152 114.615 13.7051C114.615 12.8223 114.779 12.0488 115.107 11.3848C115.439 10.7207 115.916 10.209 116.537 9.84961C117.162 9.49023 117.896 9.31055 118.74 9.31055C119.639 9.31055 120.424 9.47461 121.096 9.80273L120.674 10.6582C120.025 10.3535 119.377 10.2012 118.729 10.2012ZM130.066 13.7051C130.066 15.0762 129.719 16.1543 129.023 16.9395C128.332 17.7246 127.369 18.1172 126.135 18.1172C124.873 18.1172 123.898 17.7324 123.211 16.9629C122.527 16.1895 122.186 15.0996 122.186 13.6934C122.186 12.2988 122.529 11.2188 123.217 10.4531C123.904 9.68359 124.881 9.29883 126.146 9.29883C127.377 9.29883 128.338 9.68945 129.029 10.4707C129.721 11.252 130.066 12.3301 130.066 13.7051ZM123.24 13.7051C123.24 14.8652 123.486 15.7461 123.979 16.3477C124.475 16.9453 125.193 17.2441 126.135 17.2441C127.084 17.2441 127.801 16.9453 128.285 16.3477C128.77 15.75 129.012 14.8691 129.012 13.7051C129.012 12.5527 128.77 11.6797 128.285 11.0859C127.805 10.4883 127.092 10.1895 126.146 10.1895C125.197 10.1895 124.475 10.4902 123.979 11.0918C123.486 11.6895 123.24 12.5605 123.24 13.7051ZM138.674 18H137.537L132.855 10.8105H132.809C132.871 11.6543 132.902 12.4277 132.902 13.1309V18H131.982V9.43359H133.107L137.777 16.5938H137.824C137.816 16.4883 137.799 16.1504 137.771 15.5801C137.744 15.0059 137.734 14.5957 137.742 14.3496V9.43359H138.674V18ZM143.666 18H142.67V10.3184H139.957V9.43359H146.379V10.3184H143.666V18ZM155.109 13.7051C155.109 15.0762 154.762 16.1543 154.066 16.9395C153.375 17.7246 152.412 18.1172 151.178 18.1172C149.916 18.1172 148.941 17.7324 148.254 16.9629C147.57 16.1895 147.229 15.0996 147.229 13.6934C147.229 12.2988 147.572 11.2188 148.26 10.4531C148.947 9.68359 149.924 9.29883 151.189 9.29883C152.42 9.29883 153.381 9.68945 154.072 10.4707C154.764 11.252 155.109 12.3301 155.109 13.7051ZM148.283 13.7051C148.283 14.8652 148.529 15.7461 149.021 16.3477C149.518 16.9453 150.236 17.2441 151.178 17.2441C152.127 17.2441 152.844 16.9453 153.328 16.3477C153.812 15.75 154.055 14.8691 154.055 13.7051C154.055 12.5527 153.812 11.6797 153.328 11.0859C152.848 10.4883 152.135 10.1895 151.189 10.1895C150.24 10.1895 149.518 10.4902 149.021 11.0918C148.529 11.6895 148.283 12.5605 148.283 13.7051Z" fill="white"/>
</g>
<defs>
<clipPath id="clip0_959_35">
<rect width="106" height="20" fill="white" transform="translate(54 4)"/>
</clipPath>
</defs>
</svg>
