<svg width="238" height="73" viewBox="0 0 238 73" fill="none" xmlns="http://www.w3.org/2000/svg">
<rect x="124" y="1" width="52" height="31" rx="4" fill="#0072CE"/>
<path fill-rule="evenodd" clip-rule="evenodd" d="M167.892 18.9104H166.055C165.871 18.9104 165.749 18.9172 165.647 18.9859C165.54 19.0536 165.499 19.154 165.499 19.2866C165.499 19.4442 165.589 19.5514 165.72 19.5978C165.826 19.6345 165.94 19.6452 166.108 19.6452L166.655 19.6597C167.206 19.6732 167.574 19.767 167.798 19.996C167.839 20.0279 167.864 20.0637 167.892 20.0994V18.9104ZM167.892 21.6653C167.647 22.02 167.17 22.1998 166.524 22.1998H164.577V21.3038H166.516C166.708 21.3038 166.843 21.2787 166.924 21.2004C166.994 21.1357 167.043 21.0418 167.043 20.9278C167.043 20.8061 166.994 20.7094 166.92 20.6515C166.847 20.5877 166.74 20.5587 166.565 20.5587C165.618 20.5269 164.438 20.5877 164.438 19.2654C164.438 18.6593 164.826 18.0213 165.884 18.0213H167.892V17.1899H166.026C165.463 17.1899 165.054 17.3235 164.765 17.5312V17.1899H162.005C161.564 17.1899 161.046 17.2983 160.801 17.5312V17.1899H155.873V17.5312C155.481 17.2509 154.82 17.1899 154.514 17.1899H151.264V17.5312C150.954 17.2335 150.264 17.1899 149.843 17.1899H146.206L145.373 18.0823L144.593 17.1899H139.16V23.0205H144.491L145.349 22.114L146.157 23.0205L149.443 23.0234V21.6518H149.766C150.202 21.6585 150.717 21.6411 151.17 21.4468V23.0204H153.881V21.5008H154.012C154.179 21.5008 154.195 21.5076 154.195 21.6728V23.0203H162.43C162.953 23.0203 163.499 22.8877 163.802 22.6472V23.0203H166.414C166.957 23.0203 167.488 22.9448 167.892 22.7515V21.6653ZM163.871 19.996C164.067 20.1972 164.172 20.4512 164.172 20.8813C164.172 21.7802 163.605 22.1998 162.589 22.1998H160.625V21.3038H162.581C162.772 21.3038 162.908 21.2787 162.993 21.2004C163.062 21.1357 163.112 21.0418 163.112 20.9278C163.112 20.8061 163.058 20.7094 162.989 20.6515C162.912 20.5877 162.805 20.5587 162.63 20.5587C161.687 20.5269 160.506 20.5877 160.506 19.2654C160.506 18.6593 160.891 18.0213 161.948 18.0213H163.969V18.9107H162.119C161.936 18.9107 161.817 18.9175 161.716 18.9862C161.605 19.0538 161.564 19.1543 161.564 19.2868C161.564 19.4445 161.658 19.5517 161.785 19.5981C161.891 19.6347 162.005 19.6454 162.177 19.6454L162.72 19.6599C163.267 19.6732 163.643 19.7669 163.871 19.996ZM154.775 19.7379C154.64 19.8172 154.473 19.824 154.277 19.824H153.053V18.8855H154.294C154.473 18.8855 154.653 18.8893 154.775 18.961C154.906 19.0286 154.984 19.158 154.984 19.3368C154.984 19.5156 154.906 19.6597 154.775 19.7379ZM155.384 20.258C155.608 20.34 155.791 20.487 155.877 20.6088C156.02 20.8128 156.04 21.0032 156.044 21.3715V22.1998H155.032V21.677C155.032 21.4257 155.057 21.0534 154.87 20.8591C154.722 20.7094 154.498 20.6736 154.13 20.6736H153.053V22.1998H152.04V18.0212H154.367C154.877 18.0212 155.249 18.0435 155.58 18.2184C155.898 18.4088 156.098 18.6696 156.098 19.1463C156.098 19.8133 155.649 20.1536 155.384 20.258ZM156.657 18.0212H160.021V18.8854H157.661V19.6451H159.964V20.4976H157.661V21.329L160.021 21.3328V22.1998H156.657V18.0212ZM149.856 19.9496H148.553V18.8855H149.868C150.232 18.8855 150.484 19.0324 150.484 19.3978C150.484 19.7592 150.243 19.9496 149.856 19.9496ZM147.549 21.8198L146.002 20.1177L147.549 18.4697V21.8198ZM143.552 21.329H141.074V20.4976H143.287V19.6451H141.074V18.8854H143.601L144.704 20.1031L143.552 21.329ZM151.566 19.3978C151.566 20.5586 150.692 20.7983 149.811 20.7983H148.553V22.1998H146.594L145.353 20.8165L144.063 22.1998H140.07V18.0212H144.124L145.364 19.3909L146.647 18.0212H149.868C150.668 18.0212 151.566 18.2406 151.566 19.3978Z" fill="white"/>
<path fill-rule="evenodd" clip-rule="evenodd" d="M135.26 13.2058L134.571 11.5404L133.885 13.2058H135.26ZM150.46 12.5426C150.321 12.6259 150.158 12.6287 149.961 12.6287H148.737V11.7008H149.978C150.154 11.7008 150.337 11.7086 150.456 11.7761C150.587 11.837 150.668 11.9665 150.668 12.1454C150.668 12.328 150.591 12.4749 150.46 12.5426ZM159.196 13.2058L158.498 11.5404L157.805 13.2058H159.196ZM142.911 15.0084H141.878L141.874 11.7365L140.413 15.0084H139.527L138.062 11.7336V15.0084H136.012L135.624 14.0766H133.526L133.134 15.0084H132.039L133.845 10.8308H135.342L137.057 14.7862V10.8308H138.702L140.021 13.6648L141.233 10.8308H142.911V15.0084H142.911ZM147.03 15.0084H143.663V10.8308H147.03V11.7008H144.671V12.4538H146.974V13.3101H144.671V14.1444H147.03V15.0084ZM151.778 11.9559C151.778 12.622 151.329 12.9661 151.068 13.0694C151.288 13.1526 151.477 13.2995 151.566 13.4213C151.709 13.629 151.733 13.8146 151.733 14.1878V15.0084H150.717L150.713 14.4816C150.713 14.2302 150.737 13.8687 150.554 13.6677C150.406 13.5208 150.182 13.4889 149.819 13.4889H148.737V15.0084H147.729V10.8308H150.047C150.563 10.8308 150.942 10.8443 151.268 11.0309C151.587 11.2175 151.778 11.4899 151.778 11.9559ZM153.391 15.0084H152.363V10.8308H153.391V15.0084ZM165.324 15.0084H163.895L161.985 11.8729V15.0084H159.932L159.539 14.0766H157.445L157.065 15.0084H155.885C155.395 15.0084 154.775 14.9011 154.424 14.5464C154.069 14.1917 153.885 13.7112 153.885 12.9515C153.885 12.3319 153.995 11.7655 154.428 11.318C154.754 10.9845 155.265 10.8308 155.959 10.8308H156.935V11.726H155.98C155.612 11.726 155.404 11.7801 155.204 11.9734C155.032 12.1493 154.914 12.4819 154.914 12.9197C154.914 13.3673 155.004 13.69 155.192 13.9008C155.347 14.0662 155.629 14.1163 155.894 14.1163H156.347L157.768 10.8309H159.278L160.985 14.7824V10.8309H162.519L164.291 13.7404V10.8309H165.324V15.0084ZM132.028 15.829H133.75L134.138 14.9011H135.008L135.395 15.829H138.784V15.1196L139.086 15.832H140.846L141.148 15.109V15.829H149.57L149.566 14.3058H149.729C149.843 14.3097 149.876 14.3202 149.876 14.5068V15.829H154.232V15.4744C154.584 15.6609 155.13 15.829 155.849 15.829H157.682L158.074 14.9011H158.943L159.327 15.829H162.858V14.9476L163.393 15.829H166.222V10.0024H163.422V10.6906L163.03 10.0024H160.156V10.6906L159.796 10.0024H155.914C155.265 10.0024 154.694 10.0923 154.232 10.3427V10.0024H151.554V10.3427C151.26 10.0846 150.86 10.0024 150.415 10.0024H140.629L139.972 11.5073L139.298 10.0024H136.216V10.6906L135.877 10.0024H133.248L132.028 12.7727V15.829H132.028Z" fill="white"/>
<rect y="0.944824" width="52" height="31" rx="4" fill="#000066"/>
<path fill-rule="evenodd" clip-rule="evenodd" d="M29.1869 16.6957C29.1869 22.2644 24.6438 26.7782 19.0393 26.7782C13.4346 26.7782 8.89124 22.2644 8.89124 16.6957C8.89124 11.127 13.4346 6.61279 19.0393 6.61279C24.6438 6.61279 29.1869 11.127 29.1869 16.6957Z" fill="#CC0000"/>
<path fill-rule="evenodd" clip-rule="evenodd" d="M32.6633 6.61279C30.0407 6.61279 27.6518 7.60118 25.8506 9.22262C25.4841 9.55309 25.1421 9.91001 24.8263 10.29H26.8766C27.1566 10.6288 27.4146 10.9849 27.6502 11.3579H24.0525C23.8373 11.7007 23.6417 12.0568 23.4678 12.4258H28.2346C28.3975 12.7714 28.5409 13.1274 28.6644 13.4932H23.038C22.921 13.8409 22.8222 14.1972 22.7433 14.5605H28.9588C29.1076 15.2488 29.1869 15.963 29.1869 16.6957C29.1869 17.815 29.0032 18.8925 28.6644 19.8987H23.038C23.1615 20.2642 23.3049 20.6207 23.4675 20.9668H28.2346C28.0604 21.3348 27.8658 21.6913 27.6493 22.0345H24.0525C24.2871 22.4064 24.5457 22.763 24.8263 23.1013H26.876C26.5608 23.4816 26.2185 23.8385 25.8509 24.169C27.652 25.7905 30.0407 26.7782 32.6633 26.7782C38.2677 26.7782 42.8109 22.2644 42.8109 16.6957C42.8109 11.1275 38.2677 6.61279 32.6633 6.61279Z" fill="#FF9900"/>
<path fill-rule="evenodd" clip-rule="evenodd" d="M16.6695 17.7995C16.5539 17.7864 16.5029 17.7823 16.4235 17.7823C15.799 17.7823 15.4833 17.9952 15.4833 18.4157C15.4833 18.6746 15.6374 18.8392 15.8779 18.8392C16.3268 18.8392 16.6503 18.4147 16.6695 17.7995ZM17.4709 19.6528C17.324 19.6528 16.5577 19.6528 16.5577 19.6528L16.5787 19.2218C16.3003 19.5621 15.9288 19.7246 15.4241 19.7246C14.8272 19.7246 14.4178 19.2616 14.4178 18.5887C14.4178 17.5758 15.1297 16.9851 16.3518 16.9851C16.4771 16.9851 16.6371 16.9966 16.801 17.0171C16.835 16.8798 16.844 16.8215 16.844 16.7474C16.844 16.472 16.6522 16.3688 16.1376 16.3688C15.5986 16.3634 15.154 16.4967 14.9714 16.5563C14.9829 16.4872 15.1242 15.6208 15.1242 15.6208C15.673 15.4605 16.0351 15.4006 16.4426 15.4006C17.3888 15.4006 17.8899 15.8226 17.8888 16.6202C17.8907 16.8342 17.855 17.0973 17.7996 17.4443C17.704 18.0466 17.4988 19.3384 17.4709 19.6528Z" fill="#000066"/>
<path fill-rule="evenodd" clip-rule="evenodd" d="M13.9568 19.6529H12.8549L13.4864 15.7217L12.0769 19.6529H11.3262L11.2334 15.7437L10.5701 19.6529H9.53894L10.4003 14.5386H11.9845L12.0803 17.4013L13.0468 14.5386H14.8088L13.9568 19.6529Z" fill="#000066"/>
<path fill-rule="evenodd" clip-rule="evenodd" d="M34.0245 17.7995C33.9089 17.7864 33.8585 17.7823 33.7793 17.7823C33.1544 17.7823 32.8389 17.9952 32.8389 18.4157C32.8389 18.6746 32.9924 18.8392 33.2336 18.8392C33.6821 18.8392 34.0058 18.4147 34.0245 17.7995ZM34.8264 19.6528C34.6791 19.6528 33.9135 19.6528 33.9135 19.6528L33.9342 19.2218C33.6558 19.5621 33.2844 19.7246 32.7801 19.7246C32.1824 19.7246 31.7734 19.2616 31.7734 18.5887C31.7734 17.5758 32.4856 16.9851 33.7075 16.9851C33.8326 16.9851 33.9923 16.9966 34.1563 17.0171C34.1905 16.8798 34.1993 16.8215 34.1993 16.7474C34.1993 16.472 34.0075 16.3688 33.4929 16.3688C32.9539 16.3634 32.5095 16.4967 32.3262 16.5563C32.3384 16.4872 32.48 15.6208 32.48 15.6208C33.0285 15.4605 33.3909 15.4006 33.7978 15.4006C34.7446 15.4006 35.2451 15.8226 35.2441 16.6202C35.246 16.8342 35.2106 17.0973 35.155 17.4443C35.0597 18.0466 34.8539 19.3384 34.8264 19.6528Z" fill="#000066"/>
<path fill-rule="evenodd" clip-rule="evenodd" d="M22.3669 19.5896C22.0653 19.6839 21.8304 19.7247 21.5754 19.7247C21.0123 19.7247 20.7049 19.4031 20.7049 18.8109C20.697 18.627 20.7859 18.1434 20.8558 17.7023C20.9196 17.3137 21.3337 14.864 21.3337 14.864H22.4285L22.3007 15.4936H22.9622L22.8129 16.4933H22.1492C22.022 17.2841 21.8406 18.2694 21.8385 18.4001C21.8385 18.6146 21.9537 18.7082 22.2159 18.7082C22.3414 18.7082 22.4386 18.6955 22.5129 18.669L22.3669 19.5896Z" fill="#000066"/>
<path fill-rule="evenodd" clip-rule="evenodd" d="M25.7244 19.5559C25.3482 19.6701 24.9856 19.7259 24.6009 19.7246C23.3748 19.723 22.7358 19.0873 22.7358 17.8691C22.7358 16.4475 23.5487 15.4006 24.6525 15.4006C25.5552 15.4006 26.132 15.9867 26.132 16.9054C26.132 17.2109 26.0926 17.5085 25.9969 17.9286H23.8162C23.7426 18.532 24.131 18.7833 24.7684 18.7833C25.1599 18.7833 25.5137 18.703 25.9067 18.5218L25.7244 19.5559ZM25.1089 17.0903C25.1152 17.0034 25.2249 16.3477 24.5989 16.3477C24.2506 16.3477 24.0009 16.6119 23.8997 17.0903H25.1089Z" fill="#000066"/>
<path fill-rule="evenodd" clip-rule="evenodd" d="M18.1316 16.8086C18.1316 17.3342 18.3882 17.697 18.9703 17.9697C19.4163 18.1782 19.4857 18.2399 19.4857 18.4287C19.4857 18.6877 19.2888 18.8052 18.8531 18.8052C18.5242 18.8052 18.2185 18.7539 17.8659 18.6407C17.8659 18.6407 17.7214 19.5578 17.7145 19.6016C17.9648 19.6555 18.188 19.7057 18.8609 19.7246C20.0233 19.7246 20.5602 19.2849 20.5602 18.3344C20.5602 17.763 20.3357 17.4276 19.7837 17.1752C19.322 16.9647 19.2686 16.9175 19.2686 16.7235C19.2686 16.4986 19.4519 16.3838 19.8078 16.3838C20.0241 16.3838 20.3193 16.4067 20.5995 16.4461L20.7562 15.4814C20.471 15.4363 20.0384 15.4006 19.7866 15.4006C18.5543 15.4006 18.1276 16.0401 18.1316 16.8086Z" fill="#000066"/>
<path fill-rule="evenodd" clip-rule="evenodd" d="M31.0824 15.5104C31.3884 15.5104 31.6742 15.5894 32.0669 15.7865L32.2473 14.6766C32.0854 14.6135 31.5175 14.2437 31.0364 14.2437C30.2994 14.2437 29.6755 14.6076 29.2376 15.2069C28.598 14.9965 28.3348 15.4217 28.0128 15.8455L27.7266 15.9118C27.7482 15.7724 27.7679 15.6339 27.7617 15.4935H26.7494C26.6115 16.7811 26.3667 18.0849 26.175 19.373L26.1248 19.6528H27.227C27.411 18.465 27.5115 17.7048 27.5728 17.1898L27.9878 16.9614C28.0502 16.7317 28.2438 16.6546 28.6331 16.664C28.5823 16.9352 28.5547 17.2209 28.5547 17.5165C28.5547 18.8774 29.2946 19.7246 30.4801 19.7246C30.7856 19.7246 31.0479 19.6848 31.4542 19.5748L31.6472 18.4094C31.2819 18.5877 30.9828 18.6717 30.7117 18.6717C30.0711 18.6717 29.6835 18.2018 29.6835 17.4257C29.6835 16.2993 30.2596 15.5104 31.0824 15.5104Z" fill="#000066"/>
<path fill-rule="evenodd" clip-rule="evenodd" d="M40.4098 14.5386L40.1649 16.0161C39.8642 15.6224 39.5406 15.3372 39.1134 15.3372C38.5575 15.3372 38.0516 15.7559 37.7202 16.3726C37.2589 16.2774 36.7821 16.1157 36.7821 16.1157L36.7818 16.1197C36.8185 15.7751 36.834 15.5654 36.8304 15.4937H35.8183C35.6808 16.7813 35.4356 18.085 35.2442 19.3731L35.1935 19.6529H36.296C36.4448 18.693 36.5585 17.8951 36.6424 17.2631C37.0193 16.9247 37.2079 16.6304 37.5878 16.6495C37.4192 17.0545 37.3209 17.5208 37.3209 17.9991C37.3209 19.0385 37.8498 19.7248 38.651 19.7248C39.0548 19.7248 39.3647 19.5863 39.6668 19.2657L39.6148 19.6526H40.6572L41.4964 14.5386H40.4098ZM39.032 18.6921C38.6571 18.6921 38.4672 18.4158 38.4672 17.8721C38.4672 17.0545 38.8221 16.475 39.3217 16.475C39.7003 16.475 39.9056 16.7612 39.9056 17.2896C39.9056 18.1142 39.5447 18.6921 39.032 18.6921Z" fill="#000066"/>
<path fill-rule="evenodd" clip-rule="evenodd" d="M14.2737 19.3492H13.1721L13.8035 15.418L12.3943 19.3492H11.6433L11.5506 15.4408L10.8872 19.3492H9.85602L10.7174 14.2354H12.3016L12.3459 17.4011L13.4149 14.2354H15.1259L14.2737 19.3492Z" fill="white"/>
<path fill-rule="evenodd" clip-rule="evenodd" d="M16.9866 17.4967C16.8711 17.4833 16.8202 17.4796 16.7408 17.4796C16.1163 17.4796 15.8004 17.6922 15.8004 18.1123C15.8004 18.371 15.9546 18.5365 16.1954 18.5365C16.6441 18.5365 16.9675 18.112 16.9866 17.4967ZM17.7878 19.3493C17.6411 19.3493 16.8752 19.3493 16.8752 19.3493L16.896 18.9186C16.6176 19.2588 16.246 19.4215 15.7414 19.4215C15.1443 19.4215 14.735 18.9578 14.735 18.2851C14.735 17.272 15.4471 16.6821 16.6692 16.6821C16.7942 16.6821 16.9542 16.6934 17.1183 16.7145C17.1523 16.5768 17.1613 16.5183 17.1613 16.4439C17.1613 16.1687 16.9695 16.0663 16.4548 16.0663C15.9157 16.0599 15.4713 16.1933 15.2885 16.2527C15.3002 16.1839 15.4413 15.3175 15.4413 15.3175C15.9902 15.1576 16.3524 15.0972 16.7598 15.0972C17.7059 15.0972 18.2068 15.5196 18.206 16.3169C18.2078 16.5306 18.1724 16.7949 18.1169 17.141C18.0211 17.7428 17.8159 19.0354 17.7878 19.3493Z" fill="white"/>
<path fill-rule="evenodd" clip-rule="evenodd" d="M32.5642 14.373L32.3838 15.4828C31.9904 15.2864 31.7054 15.2069 31.3998 15.2069C30.5773 15.2069 30.0003 15.9967 30.0003 17.1232C30.0003 17.8994 30.388 18.3683 31.0285 18.3683C31.2999 18.3683 31.5996 18.285 31.9641 18.1061L31.7706 19.2715C31.365 19.3812 31.1025 19.4214 30.7971 19.4214C29.6109 19.4214 28.8721 18.574 28.8721 17.2134C28.8721 15.3852 29.8935 14.1074 31.3534 14.1074C31.8345 14.1074 32.4027 14.3099 32.5642 14.373Z" fill="white"/>
<path fill-rule="evenodd" clip-rule="evenodd" d="M34.3414 17.4967C34.2266 17.4833 34.1754 17.4796 34.0962 17.4796C33.4721 17.4796 33.156 17.6922 33.156 18.1123C33.156 18.371 33.3101 18.5365 33.5506 18.5365C33.9992 18.5365 34.323 18.112 34.3414 17.4967ZM35.1432 19.3493C34.9967 19.3493 34.2306 19.3493 34.2306 19.3493L34.2513 18.9186C33.9729 19.2588 33.6013 19.4215 33.0971 19.4215C32.4994 19.4215 32.0906 18.9578 32.0906 18.2851C32.0906 17.272 32.802 16.6821 34.0245 16.6821C34.1494 16.6821 34.3092 16.6934 34.4731 16.7145C34.5072 16.5768 34.5162 16.5183 34.5162 16.4439C34.5162 16.1687 34.3249 16.0663 33.8099 16.0663C33.2713 16.0599 32.827 16.1933 32.6439 16.2527C32.6555 16.1839 32.7967 15.3175 32.7967 15.3175C33.3457 15.1576 33.7075 15.0972 34.115 15.0972C35.061 15.0972 35.5624 15.5196 35.5612 16.3169C35.5634 16.5306 35.5276 16.7949 35.4722 17.141C35.3767 17.7428 35.1715 19.0354 35.1432 19.3493Z" fill="white"/>
<path fill-rule="evenodd" clip-rule="evenodd" d="M22.6838 19.2863C22.3825 19.3806 22.1472 19.4215 21.8926 19.4215C21.3294 19.4215 21.0218 19.0998 21.0218 18.5082C21.0141 18.3237 21.1031 17.8409 21.1732 17.3994C21.2365 17.0104 21.6507 14.561 21.6507 14.561H22.7459L22.6177 15.1904H23.18L23.0302 16.1898H22.4662C22.339 16.9814 22.1577 17.9661 22.1554 18.0968C22.1554 18.3119 22.271 18.4049 22.5329 18.4049C22.6585 18.4049 22.7555 18.3927 22.8301 18.3656L22.6838 19.2863Z" fill="white"/>
<path fill-rule="evenodd" clip-rule="evenodd" d="M26.0419 19.2532C25.6656 19.3678 25.3022 19.4218 24.9179 19.4215C23.6917 19.4207 23.0532 18.7841 23.0532 17.5661C23.0532 16.144 23.8659 15.0972 24.9689 15.0972C25.8726 15.0972 26.4491 15.6832 26.4491 16.6031C26.4491 16.9079 26.409 17.2054 26.3144 17.6256H24.1334C24.0595 18.229 24.4484 18.4807 25.0852 18.4807C25.477 18.4807 25.8306 18.4001 26.2241 18.2185L26.0419 19.2532ZM25.4263 16.7868C25.4322 16.6998 25.5424 16.0444 24.9166 16.0444C24.568 16.0444 24.3183 16.3091 24.2168 16.7868H25.4263Z" fill="white"/>
<path fill-rule="evenodd" clip-rule="evenodd" d="M18.4485 16.5051C18.4485 17.0317 18.7054 17.3937 19.2877 17.6667C19.7337 17.8751 19.8028 17.9368 19.8028 18.1257C19.8028 18.385 19.606 18.5019 19.17 18.5019C18.8414 18.5019 18.5356 18.4513 18.1827 18.3383C18.1827 18.3383 18.0384 19.2548 18.0317 19.298C18.2819 19.3525 18.5052 19.4022 19.1778 19.4215C20.3405 19.4215 20.8774 18.9819 20.8774 18.0314C20.8774 17.4597 20.6526 17.1244 20.1007 16.8727C19.6389 16.6616 19.5858 16.6149 19.5858 16.4205C19.5858 16.1957 19.7689 16.08 20.1251 16.08C20.341 16.08 20.6365 16.1039 20.9165 16.1431L21.0734 15.1786C20.7881 15.1338 20.3557 15.0972 20.1038 15.0972C18.8712 15.0972 18.4448 15.7368 18.4485 16.5051Z" fill="white"/>
<path fill-rule="evenodd" clip-rule="evenodd" d="M40.9742 19.3492H39.9321L39.9838 18.9622C39.6815 19.2829 39.3718 19.4214 38.968 19.4214C38.1675 19.4214 37.6378 18.7359 37.6378 17.6954C37.6378 16.312 38.459 15.146 39.4303 15.146C39.8576 15.146 40.181 15.3193 40.4824 15.7132L40.7268 14.2354H41.8133L40.9742 19.3492ZM39.3489 18.3882C39.8622 18.3882 40.2224 17.8106 40.2224 16.9868C40.2224 16.4583 40.0173 16.1712 39.6387 16.1712C39.139 16.1712 38.7842 16.7508 38.7842 17.5687C38.7842 18.113 38.9743 18.3882 39.3489 18.3882Z" fill="white"/>
<path fill-rule="evenodd" clip-rule="evenodd" d="M36.1356 15.1904C35.9979 16.4777 35.7528 17.7814 35.5612 19.0697L35.511 19.3493H36.6129C37.0071 16.806 37.1018 16.3096 37.7202 16.3716C37.8185 15.851 38.0018 15.3952 38.1383 15.1654C37.6769 15.0698 37.4192 15.3289 37.0815 15.8212C37.1084 15.6082 37.157 15.4015 37.1479 15.1904H36.1356Z" fill="white"/>
<path fill-rule="evenodd" clip-rule="evenodd" d="M27.067 15.1904C26.9286 16.4777 26.6832 17.7814 26.4919 19.0697L26.4419 19.3493H27.5441C27.9384 16.806 28.0329 16.3096 28.6503 16.3716C28.7493 15.851 28.9329 15.3952 29.069 15.1654C28.6081 15.0698 28.3499 15.3289 28.0129 15.8212C28.0395 15.6082 28.0884 15.4015 28.0788 15.1904H27.067Z" fill="white"/>
<rect x="62" y="1" width="52" height="31" rx="4" fill="#26337A"/>
<path fill-rule="evenodd" clip-rule="evenodd" d="M83.5748 21.4326L85.1736 11.5776H87.7294L86.1306 21.4326H83.5748Z" fill="#FFFFFE"/>
<path fill-rule="evenodd" clip-rule="evenodd" d="M95.4011 11.8195C94.8958 11.6217 94.101 11.406 93.111 11.406C90.5842 11.406 88.8055 12.7434 88.7908 14.6584C88.7747 16.0749 90.06 16.8649 91.029 17.3357C92.0249 17.8183 92.3595 18.1272 92.3555 18.5587C92.3487 19.2187 91.5606 19.5212 90.8258 19.5212C89.8026 19.5212 89.259 19.3723 88.4184 19.0044L88.0897 18.8475L87.7323 21.0534C88.3283 21.3279 89.433 21.5661 90.5796 21.5787C93.265 21.5787 95.0099 20.2575 95.0304 18.2125C95.0396 17.0892 94.3586 16.2378 92.8837 15.5348C91.9905 15.0778 91.4424 14.7751 91.4487 14.3126C91.4492 13.903 91.9117 13.4645 92.9127 13.4645C93.7487 13.4511 94.3539 13.643 94.8254 13.8432L95.0549 13.9559L95.4011 11.8195Z" fill="#FFFFFE"/>
<path fill-rule="evenodd" clip-rule="evenodd" d="M98.8042 17.9386C99.016 17.3721 99.8223 15.1839 99.8223 15.1839C99.8074 15.21 100.033 14.6131 100.162 14.2438L100.335 15.0937C100.335 15.0937 100.825 17.4459 100.926 17.9386C100.528 17.9386 99.3033 17.9386 98.8042 17.9386ZM101.957 11.5876H99.9821C99.3695 11.5876 98.9109 11.762 98.6425 12.4046L94.8471 21.436H97.5315C97.5315 21.436 97.9694 20.2211 98.0688 19.9544C98.3616 19.9544 100.97 19.9595 101.342 19.9595C101.419 20.3034 101.653 21.436 101.653 21.436H104.026L101.957 11.5876Z" fill="#FFFFFE"/>
<path fill-rule="evenodd" clip-rule="evenodd" d="M81.4307 11.5859L78.9292 18.3046L78.6613 16.9389C78.1951 15.3653 76.744 13.6597 75.1209 12.8051L77.4094 21.424L80.1143 21.4224L84.139 11.5859H81.4307Z" fill="#FFFFFE"/>
<path fill-rule="evenodd" clip-rule="evenodd" d="M76.607 11.5791H72.4856L72.4517 11.7833C75.6587 12.5996 77.7805 14.5701 78.6612 16.9388L77.7656 12.4106C77.6111 11.7861 77.1621 11.6009 76.607 11.5791Z" fill="#EC982D"/>
<rect y="42" width="52" height="31" rx="4" fill="#0069AA"/>
<path fill-rule="evenodd" clip-rule="evenodd" d="M10.1649 60.5913C10.1649 59.9678 9.837 60.0088 9.52338 60.0023V59.822C9.79532 59.8352 10.0742 59.8352 10.3468 59.8352C10.6398 59.8352 11.0375 59.822 11.5542 59.822C13.3612 59.822 14.3455 61.0209 14.3455 62.2487C14.3455 62.9358 13.9407 64.6618 11.4702 64.6618C11.1146 64.6618 10.7862 64.6481 10.4584 64.6481C10.1446 64.6481 9.837 64.6545 9.52338 64.6618V64.4814C9.94164 64.4394 10.1446 64.4259 10.1649 63.9544V60.5913ZM10.8487 63.8432C10.8487 64.3773 11.2329 64.4394 11.5747 64.4394C13.0825 64.4394 13.5772 63.3095 13.5772 62.2765C13.5772 60.9799 12.74 60.0441 11.3933 60.0441C11.1066 60.0441 10.9747 60.0644 10.8487 60.0718V63.8432Z" fill="white"/>
<path fill-rule="evenodd" clip-rule="evenodd" d="M14.59 64.4813H14.7223C14.9176 64.4813 15.0573 64.4813 15.0573 64.252V62.3731C15.0573 62.0685 14.9528 62.0264 14.6942 61.8881V61.7775C15.0222 61.6795 15.4133 61.5487 15.4409 61.5278C15.4901 61.5 15.5313 61.4926 15.5668 61.4926C15.601 61.4926 15.6154 61.5343 15.6154 61.5902V64.252C15.6154 64.4813 15.7692 64.4813 15.9648 64.4813H16.083V64.6617C15.8457 64.6617 15.601 64.648 15.3507 64.648C15.0994 64.648 14.848 64.6544 14.59 64.6617V64.4813ZM15.3366 60.4252C15.1548 60.4252 14.9946 60.2588 14.9946 60.0786C14.9946 59.9049 15.1624 59.7451 15.3366 59.7451C15.5177 59.7451 15.6787 59.8912 15.6787 60.0786C15.6787 60.2661 15.5247 60.4252 15.3366 60.4252Z" fill="white"/>
<path fill-rule="evenodd" clip-rule="evenodd" d="M16.7462 62.4147C16.7462 62.1587 16.6691 62.0894 16.3417 61.9574V61.8258C16.6412 61.7288 16.9271 61.6382 17.2625 61.4924C17.2836 61.4924 17.3039 61.5063 17.3039 61.5617V62.0126C17.7023 61.7288 18.0442 61.4924 18.5125 61.4924C19.1048 61.4924 19.3141 61.9224 19.3141 62.4633V64.2518C19.3141 64.4812 19.468 64.4812 19.6632 64.4812H19.7891V64.6616C19.5441 64.6616 19.3002 64.6479 19.0492 64.6479C18.7978 64.6479 18.5464 64.6543 18.2952 64.6616V64.4812H18.4211C18.6166 64.4812 18.7556 64.4812 18.7556 64.2518V62.4568C18.7556 62.0611 18.5125 61.8672 18.1142 61.8672C17.8907 61.8672 17.5348 62.0471 17.3039 62.2004V64.2518C17.3039 64.4812 17.4581 64.4812 17.6536 64.4812H17.7789V64.6616C17.5348 64.6616 17.2905 64.6479 17.0388 64.6479C16.7881 64.6479 16.5366 64.6543 16.2856 64.6616V64.4812H16.4116C16.6067 64.4812 16.7462 64.4812 16.7462 64.2518V62.4147Z" fill="white"/>
<path fill-rule="evenodd" clip-rule="evenodd" d="M20.3195 62.748C20.3053 62.8104 20.3053 62.9143 20.3195 63.1502C20.3606 63.8087 20.7872 64.3492 21.3449 64.3492C21.7292 64.3492 22.0295 64.1412 22.2872 63.8851L22.3847 63.9822C22.0636 64.4051 21.666 64.7658 21.0942 64.7658C19.9843 64.7658 19.7611 63.6975 19.7611 63.254C19.7611 61.8949 20.682 61.4924 21.17 61.4924C21.7359 61.4924 22.3434 61.846 22.3499 62.5812C22.3499 62.6234 22.3499 62.6645 22.3434 62.7062L22.2803 62.748H20.3195ZM21.5552 62.526C21.7292 62.526 21.7497 62.4357 21.7497 62.3522C21.7497 61.9991 21.5335 61.7148 21.1425 61.7148C20.7172 61.7148 20.424 62.0263 20.3404 62.526H21.5552Z" fill="white"/>
<path fill-rule="evenodd" clip-rule="evenodd" d="M22.5107 64.4812H22.6993C22.8939 64.4812 23.0336 64.4812 23.0336 64.2518V62.3039C23.0336 62.0894 22.7756 62.0471 22.6709 61.9917V61.888C23.1803 61.6729 23.4595 61.4924 23.5233 61.4924C23.5642 61.4924 23.5851 61.5133 23.5851 61.583V62.2071H23.5998C23.7737 61.9367 24.0674 61.4924 24.4928 61.4924C24.6672 61.4924 24.8902 61.6103 24.8902 61.86C24.8902 62.0471 24.7583 62.2143 24.563 62.2143C24.3459 62.2143 24.3459 62.0471 24.1014 62.0471C23.983 62.0471 23.5922 62.2071 23.5922 62.6234V64.2518C23.5922 64.4812 23.7316 64.4812 23.9271 64.4812H24.3175V64.6616C23.9337 64.6543 23.6416 64.6479 23.3412 64.6479C23.0551 64.6479 22.7618 64.6543 22.5107 64.6616V64.4812Z" fill="white"/>
<path fill-rule="evenodd" clip-rule="evenodd" d="M25.1971 63.6976C25.2881 64.1551 25.5666 64.544 26.077 64.544C26.4881 64.544 26.6415 64.2941 26.6415 64.0516C26.6415 63.233 25.1206 63.4968 25.1206 62.3805C25.1206 61.9918 25.4348 61.4927 26.2025 61.4927C26.4254 61.4927 26.7254 61.5555 26.9974 61.6943L27.0464 62.401H26.886C26.8163 61.9644 26.5723 61.7149 26.1252 61.7149C25.8461 61.7149 25.5812 61.8741 25.5812 62.1723C25.5812 62.9841 27.1997 62.734 27.1997 63.8227C27.1997 64.2799 26.8303 64.7659 25.9996 64.7659C25.7207 64.7659 25.3921 64.6687 25.1487 64.53L25.0715 63.7325L25.1971 63.6976Z" fill="white"/>
<path fill-rule="evenodd" clip-rule="evenodd" d="M33.5011 61.0764H33.3271C33.1943 60.266 32.615 59.9396 31.834 59.9396C31.0305 59.9396 29.8655 60.4732 29.8655 62.1372C29.8655 63.5384 30.8708 64.5439 31.9452 64.5439C32.6354 64.5439 33.2089 64.0722 33.3482 63.3437L33.5087 63.3851L33.3482 64.3978C33.0551 64.5783 32.2663 64.7658 31.8052 64.7658C30.173 64.7658 29.1403 63.7186 29.1403 62.1587C29.1403 60.7368 30.4173 59.7173 31.7851 59.7173C32.3501 59.7173 32.8943 59.8981 33.4317 60.0855L33.5011 61.0764Z" fill="white"/>
<path fill-rule="evenodd" clip-rule="evenodd" d="M33.7531 64.4813H33.8852C34.0813 64.4813 34.2205 64.4813 34.2205 64.2519V60.3909C34.2205 59.9397 34.116 59.926 33.8506 59.8496V59.7385C34.1296 59.6485 34.4229 59.524 34.5698 59.4402C34.6456 59.3992 34.7019 59.3638 34.7225 59.3638C34.7651 59.3638 34.7789 59.4059 34.7789 59.4616V64.2519C34.7789 64.4813 34.9326 64.4813 35.1278 64.4813H35.2459V64.6617C35.0093 64.6617 34.7651 64.648 34.5138 64.648C34.2626 64.648 34.0117 64.6544 33.7531 64.6617V64.4813Z" fill="white"/>
<path fill-rule="evenodd" clip-rule="evenodd" d="M38.2337 64.28C38.2337 64.4053 38.3101 64.4119 38.4284 64.4119C38.5126 64.4119 38.6168 64.4053 38.7082 64.4053V64.5512C38.408 64.5787 37.8355 64.7243 37.7027 64.766L37.6679 64.7449V64.1832C37.2496 64.5228 36.9282 64.766 36.4321 64.766C36.0553 64.766 35.6648 64.5228 35.6648 63.9411V62.1656C35.6648 61.985 35.6371 61.8117 35.2468 61.7775V61.6454C35.4982 61.6386 36.0553 61.5972 36.1463 61.5972C36.2238 61.5972 36.2238 61.6454 36.2238 61.7982V63.587C36.2238 63.7952 36.2238 64.3909 36.8308 64.3909C37.0676 64.3909 37.3817 64.2111 37.6746 63.9687V62.103C37.6746 61.9645 37.3399 61.8882 37.0891 61.8192V61.6946C37.7165 61.6523 38.1077 61.5972 38.1774 61.5972C38.2337 61.5972 38.2337 61.6454 38.2337 61.722V64.28Z" fill="white"/>
<path fill-rule="evenodd" clip-rule="evenodd" d="M39.622 61.9918C39.901 61.7566 40.278 61.4925 40.6618 61.4925C41.4714 61.4925 41.96 62.1936 41.96 62.9492C41.96 63.8572 41.2898 64.7659 40.2914 64.7659C39.7755 64.7659 39.5033 64.599 39.3215 64.5227L39.1128 64.6822L38.9664 64.6063C39.0288 64.1972 39.064 63.7951 39.064 63.3719V60.3909C39.064 59.9397 38.959 59.926 38.6938 59.8496V59.7385C38.9732 59.6485 39.266 59.524 39.4125 59.4402C39.4895 59.3992 39.5451 59.3638 39.5664 59.3638C39.6079 59.3638 39.622 59.406 39.622 59.4616V61.9918ZM39.622 63.8779C39.622 64.1413 39.8734 64.5854 40.3408 64.5854C41.0874 64.5854 41.4013 63.8572 41.4013 63.2398C41.4013 62.4912 40.8297 61.8673 40.2855 61.8673C40.0262 61.8673 39.8103 62.0339 39.622 62.1936V63.8779Z" fill="white"/>
<path fill-rule="evenodd" clip-rule="evenodd" d="M9.51562 68.6933H9.56895C9.7055 68.6933 9.84981 68.6747 9.84981 68.4784V66.5018C9.84981 66.3052 9.7055 66.2865 9.56895 66.2865H9.51562V66.1731C9.66367 66.1731 9.89149 66.1881 10.0781 66.1881C10.2678 66.1881 10.4953 66.1731 10.6738 66.1731V66.2865H10.6202C10.4842 66.2865 10.3396 66.3052 10.3396 66.5018V68.4784C10.3396 68.6747 10.4842 68.6933 10.6202 68.6933H10.6738V68.8067C10.4917 68.8067 10.2633 68.7921 10.0742 68.7921C9.88775 68.7921 9.66367 68.8067 9.51562 68.8067V68.6933Z" fill="white"/>
<path fill-rule="evenodd" clip-rule="evenodd" d="M10.6739 68.8229C10.4902 68.8229 10.2629 68.8078 10.0739 68.8078C9.88809 68.8078 9.66473 68.8229 9.51567 68.8229H9.49915V68.6771H9.56871C9.70655 68.6738 9.83189 68.6628 9.83304 68.4784V66.5019C9.83189 66.3173 9.70655 66.3053 9.56871 66.3028H9.49915V66.1567H9.51567C9.66473 66.1567 9.8924 66.1714 10.0781 66.1714C10.267 66.1714 10.4944 66.1567 10.6739 66.1567H10.6908V66.3028H10.621C10.483 66.3053 10.3569 66.3173 10.3562 66.5019V68.4784C10.3569 68.6628 10.483 68.6738 10.621 68.6771H10.6908V68.8229H10.6739ZM10.6575 68.7906L10.6576 68.7104H10.621C10.4852 68.7104 10.3237 68.6867 10.3229 68.4784V66.5019C10.3237 66.2933 10.4852 66.27 10.621 66.27H10.6575V66.1894C10.4823 66.1896 10.2622 66.2047 10.0781 66.2047C9.89772 66.2047 9.67939 66.1906 9.53235 66.1894V66.27H9.56871C9.70411 66.27 9.86581 66.2933 9.86581 66.5019V68.4784C9.86581 68.6867 9.70411 68.7104 9.56871 68.7104H9.53235V68.7906C9.67939 68.7893 9.89384 68.7755 10.0739 68.7755C10.2589 68.7755 10.4784 68.7896 10.6575 68.7906Z" fill="white"/>
<path fill-rule="evenodd" clip-rule="evenodd" d="M13.2825 68.0631L13.2901 68.0556V66.6412C13.2901 66.3316 13.0734 66.2863 12.9595 66.2863H12.8759V66.1731C13.0547 66.1731 13.2293 66.1881 13.4075 66.1881C13.5632 66.1881 13.7196 66.1731 13.8747 66.1731V66.2863H13.8182C13.6582 66.2863 13.4797 66.3165 13.4797 66.7655V68.4821C13.4797 68.6143 13.4834 68.7463 13.5021 68.8634H13.3578L11.4026 66.6974V68.2522C11.4026 68.5806 11.4668 68.6933 11.7592 68.6933H11.8239V68.8067C11.6606 68.8067 11.4975 68.792 11.3342 68.792C11.1637 68.792 10.9888 68.8067 10.8177 68.8067V68.6933H10.8711C11.133 68.6933 11.2127 68.5159 11.2127 68.215V66.6254C11.2127 66.4143 11.0375 66.2863 10.8673 66.2863H10.8177V66.1731C10.9618 66.1731 11.1101 66.1881 11.2541 66.1881C11.3684 66.1881 11.4785 66.1731 11.5923 66.1731L13.2825 68.0631Z" fill="white"/>
<path fill-rule="evenodd" clip-rule="evenodd" d="M13.5021 68.8793L13.3457 68.874L11.4187 66.74V68.2522C11.4233 68.5803 11.4734 68.6735 11.7593 68.6771H11.8407V68.8229H11.8239C11.6596 68.8229 11.4961 68.8078 11.3342 68.8078C11.1641 68.8078 10.9896 68.8229 10.8176 68.8229H10.8009V68.6771H10.871C11.122 68.6757 11.1937 68.5154 11.1965 68.2149V66.626C11.1957 66.4251 11.0299 66.3028 10.8675 66.3028H10.8009V66.1567H10.8176C10.9627 66.1567 11.1114 66.1714 11.2538 66.1714C11.3671 66.1714 11.4767 66.1567 11.6048 66.1626L13.2736 68.029V66.6413C13.2717 66.3417 13.0702 66.3053 12.9596 66.3028H12.8592V66.1567H12.876C13.0554 66.1567 13.2301 66.1714 13.4075 66.1714C13.562 66.1714 13.7177 66.1567 13.8746 66.1567H13.8913V66.3028H13.8182C13.6613 66.3068 13.5005 66.3205 13.4959 66.7655V68.4821C13.4959 68.6142 13.5001 68.7459 13.5183 68.8605L13.5218 68.8793H13.5021ZM13.3579 68.8465H13.4835C13.4666 68.7329 13.4636 68.6077 13.4636 68.4821V66.7655C13.4636 66.3127 13.6546 66.27 13.8182 66.2697H13.8581V66.1894C13.7085 66.1906 13.5586 66.2043 13.4075 66.2043C13.2336 66.2043 13.0646 66.1906 12.8929 66.1894L12.8925 66.2697H12.9596C13.0763 66.27 13.3065 66.3215 13.3065 66.6413L13.3014 68.0676L13.294 68.0748L13.281 68.087L11.5923 66.1894C11.4795 66.1894 11.3697 66.2043 11.2538 66.2043C11.1147 66.2043 10.9721 66.1906 10.8344 66.1894L10.8337 66.2697H10.8675C11.0455 66.27 11.2288 66.4051 11.2288 66.626V68.2149C11.2288 68.5169 11.1441 68.7096 10.871 68.7106L10.8344 68.7096V68.7906C10.9988 68.7893 11.1683 68.7755 11.3342 68.7755C11.4925 68.7755 11.6507 68.7893 11.8073 68.7906V68.7106H11.7593C11.4605 68.7096 11.3865 68.5803 11.3862 68.2522V66.6552L13.3579 68.8465ZM13.2826 68.0631L13.2945 68.0523L13.2826 68.0631ZM13.2735 68.0557V68.0543L13.2705 68.0519L13.2735 68.0557Z" fill="white"/>
<path fill-rule="evenodd" clip-rule="evenodd" d="M14.4437 66.3618C14.1585 66.3618 14.1475 66.43 14.0905 66.7051H13.9766C13.9915 66.5994 14.0103 66.4939 14.0221 66.3845C14.0374 66.2784 14.045 66.1731 14.045 66.064H14.136C14.1666 66.1773 14.2614 66.1731 14.3645 66.1731H16.323C16.4261 66.1731 16.5208 66.1694 16.5285 66.0562L16.6192 66.0716C16.6046 66.1731 16.5891 66.2751 16.578 66.3772C16.5705 66.479 16.5705 66.5806 16.5705 66.6824L16.4564 66.7244C16.4486 66.585 16.4298 66.3618 16.1754 66.3618H15.5526V68.369C15.5526 68.66 15.6857 68.6933 15.8677 68.6933H15.9401V68.8067C15.7919 68.8067 15.526 68.7921 15.3213 68.7921C15.0932 68.7921 14.8272 68.8067 14.679 68.8067V68.6933H14.7514C14.9607 68.6933 15.0665 68.6748 15.0665 68.3768V66.3618H14.4437Z" fill="white"/>
<path fill-rule="evenodd" clip-rule="evenodd" d="M15.9404 68.8227C15.7908 68.8227 15.5251 68.8077 15.3213 68.8077C15.0935 68.8077 14.8279 68.8227 14.679 68.8227H14.6627V68.6769H14.7514C14.9607 68.672 15.0448 68.6693 15.0495 68.3767V66.3778H14.4437V66.3448H15.0824V68.3767C15.0824 68.6796 14.9595 68.7102 14.7514 68.7104H14.6952V68.7901C14.845 68.7891 15.1008 68.7753 15.3213 68.7753C15.519 68.7753 15.7726 68.7891 15.9231 68.7901V68.7104H15.8677C15.684 68.7102 15.5362 68.6653 15.5362 68.3688V66.3448H16.1754C16.4301 66.3458 16.4639 66.5608 16.4718 66.7012L16.554 66.6711C16.554 66.5726 16.5544 66.4739 16.5612 66.3748C16.5724 66.2772 16.5862 66.1814 16.6004 66.0847L16.5428 66.0751C16.5251 66.185 16.418 66.1908 16.3229 66.1894H14.3447C14.2553 66.1895 14.1579 66.1852 14.1237 66.08H14.0611C14.0605 66.1842 14.0533 66.2855 14.0389 66.386C14.0276 66.4897 14.0102 66.5893 13.9964 66.6892H14.0775C14.1273 66.426 14.1598 66.3411 14.4437 66.3448V66.3778C14.1624 66.3833 14.1686 66.43 14.1066 66.7088L14.1039 66.7216H13.9576L13.9596 66.7021C13.9751 66.5968 13.9944 66.4909 14.0054 66.3813C14.0213 66.2766 14.0284 66.172 14.0284 66.0639V66.0471H14.149L14.1519 66.059C14.1775 66.1541 14.2478 66.1548 14.3447 66.1565H16.3229C16.4286 66.1548 16.5057 66.1534 16.5122 66.0547L16.5134 66.0369L16.5307 66.0403L16.6381 66.0571L16.6353 66.0739C16.6202 66.1751 16.6054 66.2766 16.5939 66.3778C16.5869 66.4789 16.5869 66.5803 16.5869 66.6822V66.6937L16.5758 66.6981L16.4414 66.7469L16.4406 66.7251C16.4301 66.5831 16.4154 66.3778 16.1754 66.3778H15.5693V68.3688C15.573 68.6533 15.6865 68.6733 15.8677 68.6769H15.9565V68.8227H15.9404Z" fill="white"/>
<path fill-rule="evenodd" clip-rule="evenodd" d="M16.7405 68.6933H16.794C16.9303 68.6933 17.075 68.6747 17.075 68.4784V66.5018C17.075 66.3052 16.9303 66.2865 16.794 66.2865H16.7405V66.1731C16.9714 66.1731 17.3672 66.1881 17.6856 66.1881C18.0051 66.1881 18.3995 66.1731 18.6577 66.1731C18.651 66.3353 18.6546 66.585 18.6659 66.7506L18.5514 66.7806C18.5332 66.5353 18.4876 66.3396 18.0888 66.3396H17.5615V67.3274H18.0126C18.2404 67.3274 18.29 67.1996 18.3126 66.9957H18.4264C18.4188 67.1431 18.4147 67.2902 18.4147 67.4371C18.4147 67.5808 18.4188 67.724 18.4264 67.8671L18.3126 67.8897C18.29 67.6636 18.2786 67.5165 18.0163 67.5165H17.5615V68.3951C17.5615 68.6407 17.7809 68.6407 18.0241 68.6407C18.4799 68.6407 18.6809 68.6103 18.7949 68.1807L18.9009 68.2067C18.8516 68.4071 18.8063 68.6065 18.7722 68.8067C18.5289 68.8067 18.0922 68.7921 17.7511 68.7921C17.4086 68.7921 16.9571 68.8067 16.7405 68.8067V68.6933Z" fill="white"/>
<path fill-rule="evenodd" clip-rule="evenodd" d="M18.7719 68.8229C18.5283 68.8229 18.0913 68.8072 17.7507 68.8072C17.4086 68.8072 16.9573 68.8229 16.7404 68.8229H16.7244V68.6771H16.7938C16.9313 68.6748 17.0563 68.6628 17.058 68.4784V66.5019C17.0563 66.3175 16.9313 66.3053 16.7938 66.3028H16.7244V66.1567H16.7404C16.9724 66.1567 17.3673 66.1714 17.6856 66.1714C18.0048 66.1714 18.3991 66.1567 18.6576 66.1567H18.6745L18.6739 66.1742C18.6714 66.2306 18.6699 66.2977 18.6699 66.3687C18.6699 66.4991 18.6739 66.642 18.6814 66.7494L18.6821 66.7628L18.6693 66.7667L18.5358 66.8014L18.5352 66.782C18.5128 66.5372 18.4797 66.3591 18.0887 66.3554H17.5769L17.5766 67.3109H18.0124C18.2313 67.3087 18.2704 67.1976 18.2963 66.994L18.2972 66.9789H18.4432L18.4429 66.9962C18.4356 67.1436 18.4311 67.2902 18.4311 67.4372C18.4311 67.5799 18.4356 67.7231 18.4429 67.8665L18.4432 67.8802L18.4294 67.8833L18.2972 67.9095L18.2963 67.8918C18.27 67.6614 18.2683 67.5352 18.0163 67.5324H17.5769V68.3952C17.5775 68.6245 17.7764 68.6232 18.0239 68.6245C18.4811 68.6218 18.6643 68.5995 18.7787 68.1764L18.7825 68.1611L18.7985 68.1637L18.9202 68.1951L18.9168 68.2107C18.8675 68.4103 18.8222 68.6098 18.7879 68.8095L18.785 68.8229H18.7719ZM18.7578 68.7903C18.791 68.5995 18.8343 68.409 18.8809 68.2191L18.8061 68.2004C18.6924 68.6224 18.4721 68.6601 18.0239 68.6572C17.7846 68.6572 17.5454 68.6572 17.5441 68.3952V67.5002H18.0163C18.2815 67.4975 18.3082 67.6563 18.3272 67.8709L18.4091 67.8542C18.4018 67.7151 18.3981 67.5754 18.3981 67.4372C18.3981 67.2955 18.4018 67.1541 18.4091 67.0118H18.3272C18.3058 67.2088 18.2438 67.3464 18.0124 67.3439H17.5441V66.3227H18.0887C18.4836 66.3195 18.549 66.5226 18.5662 66.76L18.648 66.7378C18.6414 66.6314 18.6369 66.4946 18.6369 66.3687C18.6369 66.3041 18.6387 66.2429 18.6408 66.1894C18.3828 66.1906 17.9978 66.2043 17.6856 66.2043C17.3735 66.2043 16.9895 66.1906 16.7571 66.1894V66.2697H16.7938C16.929 66.27 17.0905 66.2933 17.0914 66.5019V68.4784C17.0905 68.6867 16.929 68.7096 16.7938 68.7106H16.7571V68.7903C16.9781 68.7896 17.4171 68.7755 17.7507 68.7755C18.0859 68.7755 18.513 68.7896 18.7578 68.7903Z" fill="white"/>
<path fill-rule="evenodd" clip-rule="evenodd" d="M19.4137 66.5727C19.4137 66.2976 19.2616 66.2863 19.1438 66.2863H19.0752V66.1731C19.1968 66.1731 19.4322 66.1881 19.6641 66.1881C19.8915 66.1881 20.074 66.1731 20.2752 66.1731C20.753 66.1731 21.1792 66.3012 21.1792 66.8373C21.1792 67.1766 20.9512 67.3839 20.6514 67.5015L21.3003 68.4668C21.407 68.6265 21.4823 68.6712 21.6689 68.6933V68.8067C21.5432 68.8067 21.4218 68.7921 21.2969 68.7921C21.1792 68.7921 21.0571 68.8067 20.94 68.8067C20.6474 68.4258 20.3965 68.0185 20.1499 67.5839H19.8997V68.3918C19.8997 68.6823 20.0361 68.6933 20.2101 68.6933H20.279V68.8067C20.0621 68.8067 19.8427 68.7921 19.6258 68.7921C19.4436 68.7921 19.2651 68.8067 19.0752 68.8067V68.6933H19.1438C19.2848 68.6933 19.4137 68.6295 19.4137 68.4901V66.5727ZM19.8996 67.4478H20.0852C20.4654 67.4478 20.6701 67.3049 20.6701 66.8594C20.6701 66.524 20.4536 66.3089 20.1152 66.3089C20.0013 66.3089 19.9527 66.3205 19.8996 66.3242V67.4478Z" fill="white"/>
<path fill-rule="evenodd" clip-rule="evenodd" d="M21.6689 68.8229C21.5416 68.8229 21.4208 68.8078 21.2959 68.8078C21.1802 68.8078 21.0588 68.8229 20.9265 68.8166C20.6352 68.4367 20.3855 68.0317 20.1403 67.601H19.9159V68.3912C19.9201 68.6752 20.0347 68.6731 20.2102 68.6771H20.2954V68.8229H20.2786C20.0615 68.8229 19.8409 68.8078 19.6257 68.8078C19.4444 68.8078 19.266 68.8229 19.0752 68.8229H19.0587V68.6771H19.1438C19.2804 68.6761 19.3958 68.617 19.3963 68.4901V66.5727C19.3935 66.3053 19.2617 66.3065 19.1438 66.3028H19.0587V66.1567H19.0752C19.1981 66.1567 19.4326 66.1714 19.6641 66.1714C19.8908 66.1714 20.0729 66.1567 20.2753 66.1567C20.7541 66.1577 21.1946 66.2887 21.1957 66.8368C21.1957 67.1773 20.9692 67.3901 20.6764 67.5087L21.314 68.4579C21.4203 68.6144 21.4864 68.6535 21.6711 68.6771L21.6849 68.6792V68.8229H21.6689ZM19.8996 67.5677H20.159L20.1637 67.5761C20.411 68.0096 20.6605 68.417 20.94 68.7906C21.0556 68.7906 21.1776 68.7755 21.2959 68.7755C21.4171 68.7755 21.5344 68.7886 21.6522 68.7903V68.7075C21.4743 68.6859 21.3906 68.6325 21.287 68.4762L20.626 67.494L20.6447 67.4865C20.9421 67.3701 21.1624 67.1686 21.1625 66.8368C21.1624 66.3134 20.7526 66.192 20.2753 66.1894C20.0753 66.1894 19.8928 66.2047 19.6641 66.2047C19.441 66.2047 19.2157 66.1906 19.0915 66.1894V66.2697H19.1438C19.2617 66.27 19.4294 66.2894 19.4294 66.5728V68.4901C19.4294 68.6415 19.2867 68.7104 19.1438 68.7106H19.0915V68.7903C19.274 68.7896 19.4474 68.7755 19.6257 68.7755C19.8377 68.7755 20.0522 68.7896 20.2622 68.7903V68.7106H20.2102C20.0373 68.7104 19.8827 68.6891 19.8827 68.3912V67.5677H19.8996ZM19.8996 67.4642H19.8827V66.309L19.8973 66.3078C19.9493 66.3037 20.0005 66.2933 20.1153 66.2933C20.4611 66.2933 20.6864 66.5165 20.6866 66.8605C20.6856 67.3109 20.4683 67.464 20.0853 67.4642H19.8996ZM20.0853 67.432C20.4611 67.4283 20.6506 67.2988 20.6543 66.8605C20.652 66.5309 20.446 66.3264 20.1153 66.325C20.0128 66.325 19.9644 66.3344 19.9159 66.3391V67.432H20.0853Z" fill="white"/>
<path fill-rule="evenodd" clip-rule="evenodd" d="M24.2469 68.0631L24.2535 68.0556V66.6412C24.2535 66.3316 24.0377 66.2863 23.9237 66.2863H23.8405V66.1731C24.019 66.1731 24.1931 66.1881 24.3721 66.1881C24.5281 66.1881 24.6827 66.1731 24.8395 66.1731V66.2863H24.7823C24.6227 66.2863 24.4444 66.3165 24.4444 66.7655V68.4821C24.4444 68.6143 24.4481 68.7463 24.4668 68.8634H24.323L22.3677 66.6974V68.2522C22.3677 68.5806 22.4318 68.6933 22.7242 68.6933H22.7888V68.8067C22.6257 68.8067 22.4621 68.792 22.299 68.792C22.1275 68.792 21.9532 68.8067 21.7824 68.8067V68.6933H21.8352C22.0973 68.6933 22.1775 68.5159 22.1775 68.215V66.6254C22.1775 66.4143 22.0026 66.2863 21.8319 66.2863H21.7824V66.1731C21.9261 66.1731 22.0753 66.1881 22.2194 66.1881C22.3322 66.1881 22.4429 66.1731 22.557 66.1731L24.2469 68.0631Z" fill="white"/>
<path fill-rule="evenodd" clip-rule="evenodd" d="M24.4666 68.8793L24.3107 68.874L22.3834 66.7403V68.2521C22.3878 68.5807 22.4378 68.6735 22.7242 68.6771H22.8047V68.8229H22.7881C22.624 68.8229 22.461 68.8072 22.2983 68.8072C22.1288 68.8072 21.9533 68.8229 21.7823 68.8229H21.7653V68.6771H21.8352C22.086 68.6761 22.1579 68.5154 22.1603 68.2141V66.6254C22.1599 66.4244 21.9943 66.3028 21.8319 66.3028H21.7653V66.1567H21.7823C21.9273 66.1567 22.0759 66.1714 22.2192 66.1714C22.3308 66.1714 22.4407 66.1567 22.5681 66.1616L24.2374 68.029V66.6413C24.2364 66.3417 24.0342 66.3045 23.9238 66.3028H23.8236V66.1567H23.8401C24.0195 66.1567 24.1946 66.1714 24.3721 66.1714C24.5267 66.1714 24.6822 66.1567 24.8388 66.1567H24.8556V66.3028H24.7823C24.6256 66.3065 24.4642 66.3205 24.4605 66.7655V68.4821C24.4605 68.6142 24.4638 68.7451 24.4832 68.8607L24.485 68.8793H24.4666ZM24.3229 68.8465H24.4474C24.4307 68.7336 24.4274 68.6077 24.4274 68.4821V66.7655C24.4277 66.3127 24.6197 66.2707 24.7823 66.2697H24.8222V66.1894C24.6728 66.1906 24.5227 66.2043 24.3721 66.2043C24.1976 66.2043 24.0284 66.1906 23.8566 66.1894V66.2697H23.9238C24.0408 66.2707 24.2707 66.3215 24.2707 66.6413L24.2653 68.0676L24.2584 68.0748L24.2464 68.0873L22.557 66.1894C22.444 66.1894 22.3339 66.2043 22.2192 66.2043C22.0784 66.2043 21.9365 66.1906 21.7985 66.1894V66.2697H21.8319C22.0105 66.2707 22.1932 66.4045 22.1932 66.6254V68.2141C22.1932 68.5169 22.1074 68.7096 21.8352 68.7106L21.7985 68.7104V68.7905C21.9625 68.7893 22.1317 68.7755 22.2983 68.7755C22.4575 68.7755 22.6154 68.7893 22.7723 68.7905V68.7106H22.7242C22.4253 68.7104 22.3509 68.5807 22.35 68.2521V66.6557L24.3229 68.8465ZM24.2464 68.0631L24.2588 68.0523L24.2464 68.0631ZM24.2374 68.0557V68.0547L24.2347 68.0519L24.2374 68.0557Z" fill="white"/>
<path fill-rule="evenodd" clip-rule="evenodd" d="M25.4499 68.2673C25.4117 68.3952 25.3659 68.4943 25.3659 68.5613C25.3659 68.6748 25.5258 68.6935 25.6507 68.6935H25.6931V68.8067C25.5406 68.7986 25.3857 68.7922 25.2329 68.7922C25.0962 68.7922 24.9602 68.7986 24.8231 68.8067V68.6935H24.8463C24.994 68.6935 25.1198 68.6065 25.1761 68.448L25.7837 66.7168C25.8333 66.5769 25.9017 66.3884 25.9248 66.2484C26.0456 66.2071 26.1981 66.1322 26.2699 66.0863C26.2817 66.0825 26.2888 66.0786 26.3003 66.0786C26.3118 66.0786 26.3188 66.0786 26.3271 66.0905C26.3384 66.1203 26.3494 66.1543 26.3612 66.1844L27.0602 68.158C27.1058 68.2896 27.1509 68.4292 27.1995 68.543C27.2457 68.6488 27.3255 68.6935 27.4513 68.6935H27.474V68.8067C27.303 68.7986 27.1316 68.7922 26.9502 68.7922C26.7641 68.7922 26.5736 68.7986 26.38 68.8067V68.6935H26.4219C26.5087 68.6935 26.6577 68.6785 26.6577 68.5841C26.6577 68.5354 26.6234 68.4334 26.581 68.3122L26.4331 67.8748H25.5713L25.4499 68.2673ZM26.0043 66.5959H25.9964L25.6436 67.6637H26.353L26.0043 66.5959Z" fill="white"/>
<path fill-rule="evenodd" clip-rule="evenodd" d="M27.4728 68.8227C27.3022 68.8155 27.131 68.807 26.9502 68.807C26.7641 68.807 26.5746 68.8155 26.3809 68.8227L26.3633 68.8236V68.6762H26.4218C26.5098 68.6762 26.6403 68.6566 26.6406 68.584C26.6415 68.541 26.6074 68.4376 26.5656 68.3176L26.421 67.8907H25.5834L25.4653 68.2721C25.4271 68.4003 25.3809 68.5 25.3816 68.5614C25.3829 68.6535 25.5247 68.6762 25.6507 68.6762H25.7091V68.8236L25.6918 68.8227C25.54 68.8155 25.3851 68.807 25.2332 68.807C25.0976 68.807 24.9604 68.8155 24.8244 68.8227L24.8067 68.8236V68.6762H24.8461C24.9872 68.6759 25.1051 68.5958 25.16 68.4426L25.7681 66.7108C25.8171 66.5712 25.8861 66.3835 25.9189 66.2327C26.0381 66.1926 26.1909 66.1165 26.2637 66.0709C26.2744 66.0672 26.2849 66.0623 26.3001 66.0623C26.3094 66.0618 26.3298 66.0642 26.3422 66.0839C26.353 66.1149 26.3651 66.1487 26.3766 66.1791L27.0757 68.1524C27.1204 68.2845 27.1658 68.4239 27.2155 68.5357C27.2595 68.6362 27.3292 68.6759 27.4513 68.6762H27.4896V68.8236L27.4728 68.8227ZM26.3965 68.7892C26.5844 68.7826 26.7688 68.7753 26.9502 68.7753C27.1263 68.7753 27.2919 68.7826 27.4569 68.7892V68.7102H27.4513C27.321 68.7111 27.2315 68.6602 27.1849 68.549C27.1355 68.435 27.0893 68.2949 27.0445 68.1628L26.3454 66.1894C26.3339 66.1593 26.3231 66.1256 26.3132 66.0987C26.3094 66.095 26.3103 66.095 26.3073 66.095H26.3001C26.2925 66.095 26.2879 66.0973 26.2781 66.0997C26.2051 66.1469 26.0529 66.2213 25.9399 66.2507C25.9168 66.3936 25.8483 66.5822 25.799 66.722L25.1915 68.4533C25.1337 68.6172 25.0002 68.7105 24.8461 68.7102H24.8398V68.7892C24.97 68.7826 25.1014 68.7753 25.2332 68.7753C25.3801 68.7753 25.5298 68.7826 25.6751 68.7892V68.7102H25.6507C25.5267 68.7085 25.3539 68.6951 25.3496 68.5614C25.3499 68.4866 25.3964 68.39 25.4337 68.2625L25.4498 68.2672L25.4337 68.2621L25.5587 67.8589H26.4441L26.5962 68.3069C26.6389 68.4283 26.6734 68.5288 26.6734 68.584C26.6678 68.6995 26.5079 68.7081 26.4218 68.7102H26.3965V68.7892ZM25.6204 67.6798L25.9839 66.579H26.0043V66.5957L26.0003 66.5969L26.0043 66.5957V66.579H26.0156L26.3766 67.6798H25.6204ZM25.6658 67.6468H26.3306L26.0001 66.6359L25.6658 67.6468ZM25.9878 66.6006L25.9965 66.5979L25.9878 66.6006Z" fill="white"/>
<path fill-rule="evenodd" clip-rule="evenodd" d="M27.6408 66.3618C27.3561 66.3618 27.3446 66.43 27.2874 66.7051H27.1733C27.1882 66.5994 27.2076 66.4939 27.2194 66.3845C27.2342 66.2784 27.2416 66.1731 27.2416 66.064H27.3334C27.3632 66.1773 27.4583 66.1731 27.5608 66.1731H29.5204C29.6225 66.1731 29.7174 66.1694 29.7248 66.0562L29.8157 66.0716C29.8016 66.1731 29.7865 66.2751 29.7746 66.3772C29.7662 66.479 29.7662 66.5806 29.7662 66.6824L29.6528 66.7244C29.6461 66.585 29.627 66.3618 29.372 66.3618H28.7493V68.369C28.7493 68.66 28.8824 68.6933 29.0644 68.6933H29.137V68.8067C28.9886 68.8067 28.7233 68.7921 28.5178 68.7921C28.2904 68.7921 28.0239 68.8067 27.8758 68.8067V68.6933H27.9481C28.1574 68.6933 28.2634 68.6748 28.2634 68.3768V66.3618H27.6408Z" fill="white"/>
<path fill-rule="evenodd" clip-rule="evenodd" d="M29.137 68.8227C28.9878 68.8227 28.7216 68.8077 28.5175 68.8077C28.2907 68.8077 28.0248 68.8227 27.876 68.8227H27.8592V68.6769H27.9482C28.1576 68.672 28.2415 68.6693 28.2465 68.3767L28.2463 66.3778H27.6409V66.3448H28.2797V68.3767C28.2797 68.6796 28.1567 68.7094 27.9482 68.7102H27.8922V68.7904C28.0423 68.7891 28.2974 68.7753 28.5175 68.7753C28.716 68.7753 28.9701 68.7891 29.12 68.7904V68.7102H29.0642C28.8813 68.7094 28.7334 68.6657 28.7331 68.3688V66.3448H29.372C29.6271 66.3458 29.6603 66.5608 29.6676 66.7012L29.7501 66.6711C29.7501 66.5726 29.7507 66.4739 29.7585 66.3752C29.7687 66.2779 29.7831 66.1814 29.7969 66.0851L29.7395 66.0751C29.7221 66.185 29.6149 66.1911 29.5205 66.1894H27.5414C27.4518 66.1904 27.355 66.1852 27.3205 66.0797H27.2584C27.2575 66.1841 27.25 66.2855 27.2351 66.386C27.2247 66.4902 27.2065 66.59 27.192 66.6892H27.2736C27.3235 66.426 27.3564 66.3406 27.6409 66.3448V66.3778C27.3593 66.3826 27.3655 66.43 27.3035 66.7088L27.3008 66.7216H27.1542L27.1565 66.7029C27.1724 66.5968 27.1911 66.4909 27.2022 66.3822C27.2177 66.2766 27.2247 66.172 27.2247 66.0639V66.0471H27.3453L27.3485 66.059C27.3751 66.1541 27.4442 66.1548 27.5414 66.1565H29.5205C29.6255 66.1548 29.7021 66.1534 29.7089 66.055L29.7095 66.0369L29.7271 66.0403L29.8349 66.0571L29.8324 66.0739C29.8167 66.1751 29.8023 66.2766 29.7908 66.3778C29.7831 66.4789 29.7831 66.5804 29.7831 66.6822V66.6937L29.772 66.6981L29.6376 66.7469L29.637 66.7251C29.6271 66.5831 29.612 66.3778 29.372 66.3778H28.7657V68.3688C28.7696 68.6533 28.8833 68.6733 29.0642 68.6769H29.1528V68.8227H29.137Z" fill="white"/>
<path fill-rule="evenodd" clip-rule="evenodd" d="M29.9562 68.6933H30.0094C30.1463 68.6933 30.29 68.6747 30.29 68.4784V66.5018C30.29 66.3052 30.1463 66.2865 30.0094 66.2865H29.9562V66.1731C30.1044 66.1731 30.3318 66.1881 30.5177 66.1881C30.708 66.1881 30.9359 66.1731 31.1147 66.1731V66.2865H31.0614C30.9241 66.2865 30.7798 66.3052 30.7798 66.5018V68.4784C30.7798 68.6747 30.9241 68.6933 31.0614 68.6933H31.1147V68.8067C30.9323 68.8067 30.7042 68.7921 30.5146 68.7921C30.3282 68.7921 30.1044 68.8067 29.9562 68.8067V68.6933Z" fill="white"/>
<path fill-rule="evenodd" clip-rule="evenodd" d="M31.1147 68.8229C30.9312 68.8229 30.7041 68.8072 30.5146 68.8072C30.3288 68.8072 30.1046 68.8229 29.9562 68.8229H29.94V68.6771H30.0096C30.1464 68.6748 30.2726 68.6628 30.2735 68.4784V66.5019C30.2726 66.3175 30.1464 66.3053 30.0096 66.3028H29.94V66.1567H29.9562C30.1046 66.1567 30.333 66.1714 30.5177 66.1714C30.707 66.1714 30.9348 66.1567 31.1147 66.1567H31.1305V66.3028H31.0616C30.9226 66.3053 30.7977 66.3175 30.7964 66.5019V68.4784C30.7977 68.6628 30.9226 68.6748 31.0616 68.6771H31.1305V68.8229H31.1147ZM31.0975 68.7903V68.7104H31.0616C30.9253 68.7104 30.7642 68.6867 30.7642 68.4784V66.5019C30.7642 66.2933 30.9253 66.27 31.0616 66.2697H31.0975V66.1894C30.9224 66.1906 30.7025 66.2043 30.5177 66.2043C30.3374 66.2043 30.1201 66.1906 29.9728 66.1894V66.2697H30.0096C30.1444 66.27 30.3062 66.2933 30.3067 66.5019V68.4784C30.3062 68.6867 30.1444 68.7104 30.0096 68.7104H29.9728V68.7903C30.1191 68.7886 30.3338 68.7755 30.5146 68.7755C30.6988 68.7755 30.9184 68.7893 31.0975 68.7903Z" fill="white"/>
<path fill-rule="evenodd" clip-rule="evenodd" d="M32.6288 66.1165C33.4383 66.1165 34.0836 66.615 34.0836 67.4186C34.0836 68.2865 33.4569 68.8633 32.6484 68.8633C31.843 68.8633 31.2281 68.3199 31.2281 67.5086C31.2281 66.7243 31.8393 66.1165 32.6288 66.1165ZM32.6862 68.6972C33.4231 68.6972 33.5516 68.0516 33.5516 67.5014C33.5516 66.95 33.2523 66.2825 32.6216 66.2825C31.9573 66.2825 31.7597 66.8712 31.7597 67.3763C31.7597 68.0516 32.0713 68.6972 32.6862 68.6972Z" fill="white"/>
<path fill-rule="evenodd" clip-rule="evenodd" d="M31.2112 67.5087C31.2128 66.7152 31.831 66.1014 32.6287 66.1001V66.1331C31.8481 66.1331 31.2442 66.7326 31.2434 67.5087C31.245 68.3108 31.8509 68.8461 32.6485 68.8464C33.4488 68.8461 34.0664 68.2776 34.0675 67.4181C34.0667 66.6245 33.4317 66.1338 32.6287 66.1331V66.1001C33.4439 66.101 34.0984 66.6044 34.0998 67.4181C34.0989 68.295 33.4648 68.8778 32.6485 68.8792C31.8363 68.8778 31.2128 68.329 31.2112 67.5087ZM31.743 67.3764C31.7441 66.8687 31.9435 66.2658 32.6215 66.2658C33.2663 66.2672 33.567 66.9471 33.5683 67.5015C33.567 68.0516 33.4368 68.7127 32.6863 68.7127V68.6807C33.4083 68.6801 33.5338 68.0516 33.5349 67.5015C33.5349 66.955 33.2387 66.3 32.6215 66.299C31.9701 66.2997 31.7776 66.8738 31.7759 67.3764C31.7762 68.0485 32.0849 68.6797 32.6863 68.6807V68.7127C32.056 68.7121 31.7441 68.0556 31.743 67.3764Z" fill="white"/>
<path fill-rule="evenodd" clip-rule="evenodd" d="M36.6423 68.0631L36.6502 68.0556V66.6412C36.6502 66.3316 36.433 66.2863 36.3192 66.2863H36.2365V66.1731C36.4145 66.1731 36.5896 66.1881 36.7675 66.1881C36.9236 66.1881 37.0793 66.1731 37.2351 66.1731V66.2863H37.178C37.0189 66.2863 36.8397 66.3165 36.8397 66.7655V68.4821C36.8397 68.6143 36.8437 68.7463 36.8629 68.8634H36.7185L34.7626 66.6974V68.2522C34.7626 68.5806 34.8274 68.6933 35.1192 68.6933H35.1843V68.8067C35.0209 68.8067 34.8579 68.792 34.6946 68.792C34.5235 68.792 34.3488 68.8067 34.1779 68.8067V68.6933H34.2312C34.4936 68.6933 34.5728 68.5159 34.5728 68.215V66.6254C34.5728 66.4143 34.3988 66.2863 34.227 66.2863H34.1779V66.1731C34.3222 66.1731 34.4701 66.1881 34.6147 66.1881C34.7284 66.1881 34.8379 66.1731 34.9523 66.1731L36.6423 68.0631Z" fill="white"/>
<path fill-rule="evenodd" clip-rule="evenodd" d="M36.8631 68.8793L36.706 68.874L34.779 66.7403V68.2522C34.7834 68.5807 34.8336 68.6731 35.1188 68.6764H35.2005V68.8229H35.1844C35.02 68.8229 34.857 68.8078 34.6946 68.8078C34.5244 68.8078 34.3496 68.8229 34.1774 68.8229H34.1619V68.6764H34.2311C34.4813 68.6757 34.5535 68.5154 34.5565 68.2149V66.6254C34.5563 66.4244 34.3903 66.3028 34.2272 66.3028H34.1619V66.1567H34.1774C34.3231 66.1567 34.4711 66.1714 34.6145 66.1714C34.7272 66.1714 34.8363 66.1567 34.9651 66.1626L36.6336 68.029V66.6413C36.6323 66.3417 36.43 66.3053 36.3192 66.3028H36.2192V66.1567H36.2366C36.4149 66.1567 36.5902 66.1714 36.7671 66.1714C36.9225 66.1714 37.0774 66.1567 37.2352 66.1567H37.2512V66.3028H37.1779C37.0214 66.3068 36.8598 66.3211 36.8566 66.7655V68.4821C36.8566 68.6142 36.8597 68.7459 36.8781 68.8607L36.8814 68.8793H36.8631ZM36.7185 68.8465H36.843C36.8269 68.7329 36.8231 68.6077 36.8231 68.4821V66.7655C36.8231 66.312 37.0149 66.2707 37.1779 66.2697H37.219V66.1894C37.0682 66.1906 36.9189 66.2043 36.7671 66.2043C36.5942 66.2043 36.4244 66.1906 36.2525 66.1894V66.2697H36.3192C36.4365 66.2707 36.6658 66.3223 36.6658 66.6413L36.6617 68.0676L36.6544 68.0748L36.6423 68.0873L34.9525 66.1894C34.8401 66.1894 34.7295 66.2043 34.6145 66.2043C34.4746 66.2043 34.332 66.1906 34.1938 66.1894V66.2697H34.2272C34.4057 66.2707 34.5891 66.4045 34.5891 66.6254V68.2149C34.5891 68.5169 34.5043 68.7096 34.2311 68.7106L34.1938 68.7104V68.7905C34.3587 68.7893 34.5277 68.7755 34.6946 68.7755C34.853 68.7755 35.0104 68.7893 35.1678 68.7905V68.7106H35.1188C34.8208 68.7104 34.7461 68.5807 34.7461 68.2522V66.6552L36.7185 68.8465ZM36.6423 68.0631L36.6544 68.0523L36.6423 68.0631ZM36.6336 68.0557V68.0547L36.6306 68.0519L36.6336 68.0557Z" fill="white"/>
<path fill-rule="evenodd" clip-rule="evenodd" d="M37.8451 68.2673C37.8078 68.3952 37.762 68.4943 37.762 68.5613C37.762 68.6748 37.922 68.6935 38.0464 68.6935H38.0888V68.8067C37.9368 68.7986 37.781 68.7922 37.6289 68.7922C37.4922 68.7922 37.3557 68.7986 37.2195 68.8067V68.6935H37.2411C37.39 68.6935 37.5158 68.6065 37.5713 68.448L38.1801 66.7168C38.2291 66.5769 38.2978 66.3884 38.3197 66.2484C38.4417 66.2071 38.5932 66.1322 38.6664 66.0863C38.677 66.0825 38.6846 66.0786 38.6964 66.0786C38.7075 66.0786 38.7147 66.0786 38.7224 66.0905C38.7339 66.1203 38.7453 66.1543 38.7568 66.1844L39.4555 68.158C39.5007 68.2896 39.5466 68.4292 39.5962 68.543C39.6417 68.6488 39.7214 68.6935 39.8466 68.6935H39.87V68.8067C39.6988 68.7986 39.5278 68.7922 39.3454 68.7922C39.1597 68.7922 38.9695 68.7986 38.7756 68.8067V68.6935H38.8177C38.9045 68.6935 39.0534 68.6785 39.0534 68.5841C39.0534 68.5354 39.0194 68.4334 38.977 68.3122L38.8289 67.8748H37.9671L37.8451 68.2673ZM38.4003 66.5959H38.3927L38.0387 67.6637H38.7499L38.4003 66.5959Z" fill="white"/>
<path fill-rule="evenodd" clip-rule="evenodd" d="M39.8682 68.8228C39.6971 68.8161 39.5266 68.8076 39.3455 68.8076C39.1602 68.8076 38.9699 68.8161 38.7765 68.8228L38.7596 68.8236V68.677H38.8174C38.9057 68.677 39.0365 68.6567 39.0366 68.584C39.0376 68.541 39.0033 68.438 38.9606 68.3176L38.8166 67.8908H37.9783L37.861 68.2721C37.8228 68.4013 37.7779 68.5 37.7784 68.5611C37.7784 68.6535 37.9208 68.677 38.0463 68.677H38.1044V68.8236L38.0872 68.8228C37.9356 68.8161 37.7801 68.8076 37.6289 68.8076C37.4928 68.8076 37.3565 68.8161 37.2195 68.8228L37.203 68.8236V68.677H37.2411C37.3827 68.6762 37.5011 68.5957 37.5567 68.4426L38.164 66.7109C38.2127 66.5712 38.2813 66.3835 38.3146 66.2333C38.4339 66.1922 38.5864 66.1165 38.6603 66.0709C38.6701 66.0672 38.6807 66.0626 38.6962 66.0626C38.706 66.0618 38.726 66.0642 38.7376 66.0848C38.7491 66.1145 38.7604 66.1488 38.7727 66.1792L39.471 68.1524C39.5167 68.2845 39.562 68.4239 39.6113 68.5364C39.656 68.6363 39.7247 68.676 39.8461 68.677H39.8854V68.8236L39.8682 68.8228ZM38.7918 68.7895C38.9797 68.7826 39.1644 68.7754 39.3455 68.7754C39.522 68.7754 39.6871 68.7826 39.8529 68.7892L39.8524 68.7102H39.8461C39.7175 68.7105 39.6279 68.6603 39.5805 68.549C39.5305 68.435 39.4853 68.2949 39.4398 68.1633L38.7411 66.1895C38.7299 66.1593 38.7178 66.1256 38.7089 66.0995C38.7057 66.0951 38.706 66.0951 38.7037 66.0951H38.6962C38.6881 66.0951 38.6839 66.0976 38.6748 66.1002C38.6005 66.1463 38.4486 66.222 38.3365 66.2507C38.3129 66.3937 38.2439 66.5819 38.195 66.722L37.5869 68.4533C37.5291 68.6173 37.3965 68.7105 37.2411 68.7102H37.2355V68.7892C37.3663 68.7826 37.4968 68.7754 37.6289 68.7754C37.7759 68.7754 37.9261 68.7826 38.072 68.7892V68.7102H38.0463C37.9228 68.7085 37.7498 68.6955 37.7449 68.5611C37.7459 68.4866 37.7926 68.3903 37.8298 68.2625L37.8451 68.2672L37.8298 68.2621L37.9547 67.8589H38.8398L38.9923 68.3069C39.0342 68.4283 39.0688 68.5289 39.0688 68.584C39.0633 68.6995 38.9037 68.7081 38.8174 68.7102H38.7918V68.7895ZM38.016 67.6797L38.3806 66.5791H38.4003V66.5958L38.396 66.5969L38.4003 66.5958V66.5791H38.4118L38.7708 67.6797H38.016ZM38.0618 67.6469H38.7262L38.3959 66.6365L38.0618 67.6469ZM38.3845 66.6006L38.392 66.5979L38.3845 66.6006Z" fill="white"/>
<path fill-rule="evenodd" clip-rule="evenodd" d="M40.8264 68.4367C40.8264 68.5883 40.9319 68.633 41.0538 68.6487C41.2091 68.66 41.3802 68.66 41.5554 68.6407C41.7147 68.6217 41.8513 68.5318 41.9195 68.4367C41.9798 68.3538 42.0141 68.2482 42.0373 68.1653H42.1471C42.1053 68.3804 42.0523 68.5919 42.0067 68.8067C41.6733 68.8067 41.3381 68.7921 41.0045 68.7921C40.67 68.7921 40.3361 68.8067 40.0021 68.8067V68.6933H40.0547C40.1917 68.6933 40.3403 68.6747 40.3403 68.4408V66.5018C40.3403 66.3052 40.1917 66.2863 40.0547 66.2863H40.0021V66.1731C40.203 66.1731 40.4008 66.1881 40.6017 66.1881C40.7958 66.1881 40.9852 66.1731 41.1794 66.1731V66.2863H41.084C40.9396 66.2863 40.8264 66.2903 40.8264 66.4903V68.4367Z" fill="white"/>
<path fill-rule="evenodd" clip-rule="evenodd" d="M42.0069 68.8229C41.672 68.8229 41.3375 68.8078 41.0045 68.8078C40.6704 68.8078 40.3363 68.8229 40.0014 68.8229H39.9854V68.6771H40.0547C40.192 68.6738 40.3223 68.6642 40.3239 68.4409V66.5012C40.3223 66.3175 40.1925 66.3053 40.0547 66.3028H39.9854V66.1567H40.0014C40.2036 66.1567 40.4012 66.1714 40.6015 66.1714C40.7948 66.1714 40.9839 66.1567 41.1794 66.1567H41.1946V66.3028H41.084C40.9366 66.3065 40.8452 66.3 40.8419 66.4903V68.4367C40.8429 68.5778 40.9359 68.6155 41.0546 68.6324C41.1215 68.637 41.1922 68.6394 41.2652 68.6394C41.3581 68.6394 41.4545 68.6351 41.5527 68.6248C41.7073 68.6065 41.8404 68.5177 41.9061 68.4277C41.9648 68.347 41.9978 68.2436 42.0208 68.1615L42.024 68.1491H42.1671L42.1638 68.169C42.1209 68.3846 42.0685 68.5951 42.0225 68.8102L42.0195 68.8229H42.0069ZM41.9929 68.7903C42.0369 68.5854 42.0865 68.385 42.1276 68.1815H42.0493C42.026 68.2636 41.9921 68.3649 41.9326 68.447C41.8616 68.5447 41.721 68.637 41.5563 68.6572C41.457 68.6672 41.3582 68.6724 41.2652 68.6724C41.1916 68.6724 41.1206 68.6691 41.0515 68.6642C40.928 68.6508 40.8086 68.5981 40.8087 68.4367V66.4903C40.8087 66.2806 40.9422 66.2697 41.084 66.2697H41.1622V66.1894C40.9752 66.1906 40.7905 66.2047 40.6015 66.2047C40.4053 66.2047 40.2128 66.1906 40.0185 66.1894V66.2697H40.0547C40.1901 66.2697 40.3558 66.2933 40.3558 66.5012V68.4409C40.3558 68.6851 40.1908 68.7104 40.0547 68.7104H40.0185V68.7903C40.3465 68.7896 40.6748 68.7755 41.0045 68.7755C41.3346 68.7755 41.6642 68.7896 41.9929 68.7903Z" fill="white"/>
<path fill-rule="evenodd" clip-rule="evenodd" d="M42.1009 66.0662C42.33 66.0662 42.5009 66.241 42.5009 66.4643C42.5009 66.6875 42.33 66.8605 42.1009 66.8605C41.8724 66.8605 41.7012 66.6875 41.7012 66.4643C41.7012 66.241 41.8724 66.0662 42.1009 66.0662ZM42.1009 66.7866C42.2803 66.7866 42.4173 66.6351 42.4173 66.4643C42.4173 66.2932 42.2819 66.1406 42.1009 66.1406C41.9209 66.1406 41.7841 66.2932 41.7841 66.4643C41.7841 66.6351 41.9209 66.7866 42.1009 66.7866ZM41.9021 66.6738V66.6546C41.951 66.6476 41.9602 66.6488 41.9602 66.6191V66.3247C41.9602 66.2832 41.956 66.269 41.9037 66.2712V66.251H42.1084C42.1787 66.251 42.2435 66.2844 42.2435 66.3566C42.2435 66.4156 42.2044 66.4595 42.1489 66.4765L42.2147 66.5676C42.2453 66.6087 42.2803 66.6476 42.3027 66.6613V66.6738H42.2249C42.1876 66.6738 42.1545 66.5959 42.0812 66.4912H42.0369V66.6228C42.0369 66.6488 42.0461 66.6476 42.0953 66.6546V66.6738H41.9021ZM42.0369 66.4643H42.0841C42.1357 66.4643 42.1595 66.4256 42.1595 66.3629C42.1595 66.2998 42.1227 66.2774 42.0815 66.2774H42.0369V66.4643Z" fill="white"/>
<path fill-rule="evenodd" clip-rule="evenodd" d="M18.384 52.8535C18.384 49.3244 21.2632 46.4636 24.8149 46.4636C28.3667 46.4636 31.246 49.3244 31.246 52.8535C31.246 56.3825 28.3667 59.2434 24.8149 59.2434C21.2632 59.2434 18.384 56.3825 18.384 52.8535Z" fill="#0069AA"/>
<path fill-rule="evenodd" clip-rule="evenodd" d="M28.7042 52.7276C28.7016 51.0913 27.6722 49.6957 26.2217 49.143V56.3119C27.6722 55.7585 28.7016 54.3642 28.7042 52.7276ZM23.4545 56.3105V49.1438C22.0052 49.6982 20.9774 51.0917 20.9735 52.7276C20.9774 54.3631 22.0052 55.7565 23.4545 56.3105ZM24.8388 46.6683C21.4708 46.6695 18.7422 49.3813 18.7416 52.7276C18.7422 56.0736 21.4708 58.7849 24.8388 58.7854C28.2068 58.7849 30.936 56.0736 30.9368 52.7276C30.936 49.3813 28.2068 46.6695 24.8388 46.6683ZM24.8239 59.3572C21.1384 59.3747 18.105 56.408 18.105 52.7967C18.105 48.85 21.1384 46.1201 24.8239 46.1208H26.551C30.1929 46.1201 33.5167 48.8487 33.5167 52.7967C33.5167 56.4067 30.1929 59.3572 26.551 59.3572H24.8239Z" fill="white"/>
<rect x="186" y="1" width="52" height="31" rx="4" fill="black"/>
<mask id="mask0_959_34" style="mask-type:alpha" maskUnits="userSpaceOnUse" x="197" y="12" width="13" height="10">
<path fill-rule="evenodd" clip-rule="evenodd" d="M197.96 21.5605V12.4492H209.365V21.5605H197.96Z" fill="white"/>
</mask>
<g mask="url(#mask0_959_34)">
<path fill-rule="evenodd" clip-rule="evenodd" d="M206.225 16.0944L200.448 18.618C200.439 18.5171 200.434 18.415 200.434 18.3117C200.434 16.4593 201.916 14.9576 203.743 14.9576C204.731 14.9576 205.619 15.3974 206.225 16.0944ZM203.743 12.4492C206.469 12.4492 208.754 14.3613 209.365 16.9347L207.034 17.9678L207.033 17.9629L204.649 19.025L198.929 21.5605C198.317 20.6305 197.96 19.5134 197.96 18.3117C197.96 15.0739 200.549 12.4492 203.743 12.4492Z" fill="white"/>
</g>
<path fill-rule="evenodd" clip-rule="evenodd" d="M207.32 21.9857C205.38 24.0609 202.815 24.2646 200.56 22.7216L201.834 20.5384C203.117 21.4028 204.405 21.2625 205.7 20.1167L207.32 21.9857Z" fill="white"/>
<path fill-rule="evenodd" clip-rule="evenodd" d="M209.933 20.9214L209.92 9.78345H211.796V20.6206C211.796 20.7246 211.807 20.8162 211.928 20.8691L213.56 21.5831L212.825 23.7334L210.913 22.8236C210.189 22.4786 209.934 21.9787 209.933 20.9214Z" fill="white"/>
<path fill-rule="evenodd" clip-rule="evenodd" d="M217.72 20.5204C216.975 19.9206 216.495 18.9845 216.495 17.9317C216.495 16.9957 216.875 16.1518 217.482 15.5546L216.199 13.4001C214.909 14.4588 214.08 16.0946 214.08 17.9317C214.08 19.9117 215.042 21.6586 216.508 22.7001L217.72 20.5204Z" fill="#009DD7"/>
<path fill-rule="evenodd" clip-rule="evenodd" d="M218.856 15.0761C219.226 14.9508 219.625 14.8821 220.041 14.8821C221.541 14.8821 222.819 15.7697 223.319 17.0167L226.04 16.8027C225.383 14.2572 222.947 12.3667 220.041 12.3667C219.22 12.3667 218.437 12.5189 217.72 12.7927L218.856 15.0761Z" fill="#FFF200"/>
<path fill-rule="evenodd" clip-rule="evenodd" d="M223.465 18.5669C223.38 20.1633 221.902 21.4343 220.092 21.4343C219.808 21.4343 219.533 21.4025 219.269 21.3438L218.24 23.4703C218.823 23.6402 219.445 23.7336 220.092 23.7336C223.298 23.7336 225.911 21.4719 226.04 18.6392L223.465 18.5669Z" fill="#E33206"/>
<rect x="62" y="42" width="52" height="31" rx="4" fill="#B3131B"/>
<rect x="68.76" y="52.8501" width="39" height="10.85" fill="white"/>
<path fill-rule="evenodd" clip-rule="evenodd" d="M84.4521 67.8265L65.12 67.8333V67.7868C65.12 67.7612 65.1508 67.5953 65.1885 67.418C65.2262 67.2408 65.2848 66.9589 65.3187 66.7916C65.3526 66.6242 65.4106 66.3399 65.4476 66.1597L65.5841 65.4927C65.6222 65.3061 65.6818 65.0112 65.7167 64.8375C65.7515 64.6637 65.8097 64.3794 65.846 64.2056C65.8822 64.0319 65.944 63.7317 65.9833 63.5387C66.0226 63.3456 66.0824 63.0507 66.1161 62.8834C66.1498 62.7161 66.2034 62.4581 66.2351 62.31C66.2669 62.162 66.3074 61.9619 66.3251 61.8654C66.3429 61.7689 66.4003 61.4845 66.4527 61.2335C66.5051 60.9826 66.5629 60.6982 66.5812 60.6017C66.5995 60.5052 66.6576 60.2208 66.7103 59.9698C66.763 59.7188 66.8209 59.4345 66.839 59.338C66.8571 59.2414 66.9153 58.9571 66.9684 58.7061C67.0215 58.4551 67.0788 58.1761 67.0958 58.086C67.1127 57.9959 67.1592 57.7642 67.1989 57.5711C67.2387 57.378 67.314 57.0147 67.3663 56.7637C67.4185 56.5127 67.5078 56.0757 67.5648 55.7925C67.6217 55.5094 67.6898 55.1724 67.716 55.0437C67.7423 54.915 67.7897 54.6833 67.8215 54.5288C67.8532 54.3744 67.9108 54.0953 67.9496 53.9087C67.9883 53.722 68.0512 53.4166 68.0895 53.23C68.1278 53.0434 68.1868 52.7538 68.2206 52.5864C68.2544 52.4191 68.3121 52.14 68.3488 51.9663C68.3855 51.7925 68.4486 51.4871 68.4891 51.2876C68.5296 51.0881 68.5974 50.7827 68.6398 50.609C68.6822 50.4352 68.7421 50.2246 68.7729 50.1409C68.8038 50.0573 68.889 49.8759 68.9623 49.7379L69.0955 49.487L69.2166 49.3284C69.2832 49.2411 69.4021 49.1032 69.4808 49.022C69.5596 48.9407 69.6924 48.8185 69.7761 48.7503C69.8597 48.6821 69.9808 48.5901 70.0451 48.5458C70.1095 48.5015 70.2358 48.424 70.3259 48.3735C70.416 48.323 70.5423 48.2569 70.6067 48.2266C70.671 48.1963 70.8026 48.141 70.8991 48.1037C70.9957 48.0664 71.1799 48.0039 71.3086 47.9648C71.4373 47.9257 71.6788 47.8667 71.8454 47.8337C72.0119 47.8008 72.2752 47.7568 72.4303 47.736L72.7124 47.6981L92.0562 47.6907L111.4 47.6833V47.7299C111.4 47.7554 111.369 47.9214 111.331 48.0986C111.293 48.2758 111.23 48.5788 111.19 48.7719C111.151 48.965 111.093 49.244 111.062 49.392C111.031 49.5401 110.972 49.8244 110.932 50.0239C110.891 50.2234 110.828 50.5288 110.792 50.7026C110.756 50.8763 110.698 51.1607 110.663 51.3344C110.628 51.5082 110.57 51.7925 110.534 51.9663C110.497 52.14 110.441 52.4138 110.409 52.5747C110.376 52.7356 110.317 53.0252 110.278 53.2183C110.239 53.4114 110.175 53.7168 110.137 53.897C110.099 54.0772 110.042 54.3562 110.009 54.5171L109.878 55.1607C109.839 55.3537 109.776 55.6591 109.738 55.8393C109.7 56.0195 109.644 56.2933 109.613 56.4478C109.581 56.6023 109.523 56.8919 109.482 57.0914C109.442 57.2909 109.383 57.5805 109.351 57.7349C109.319 57.8894 109.263 58.1632 109.226 58.3434C109.188 58.5236 109.124 58.8342 109.083 59.0337C109.043 59.2332 108.984 59.5176 108.954 59.6656C108.923 59.8136 108.866 60.0927 108.826 60.2858C108.787 60.4788 108.724 60.7842 108.687 60.9644C108.65 61.1446 108.592 61.429 108.558 61.5963C108.524 61.7636 108.464 62.0532 108.426 62.2398L108.287 62.9185L108.16 63.5387C108.128 63.6931 108.07 63.9775 108.031 64.1705C107.991 64.3636 107.928 64.6678 107.889 64.8466L107.818 65.1717L107.735 65.3966C107.688 65.5203 107.619 65.6846 107.58 65.7619C107.542 65.8391 107.463 65.9753 107.405 66.0647C107.348 66.154 107.268 66.2684 107.227 66.3189C107.187 66.3695 107.065 66.5 106.956 66.609L106.759 66.8071L106.569 66.9421C106.464 67.0163 106.352 67.0918 106.319 67.1098C106.286 67.1278 106.16 67.1921 106.039 67.2526C105.919 67.313 105.748 67.39 105.66 67.4236C105.573 67.4572 105.399 67.5144 105.274 67.5507C105.15 67.587 105.016 67.6227 104.977 67.6301C104.939 67.6375 104.805 67.6652 104.68 67.6917C104.554 67.7183 104.302 67.7579 104.118 67.7797L103.784 67.8196L84.4521 67.8265ZM77.5741 62.8249H78.0771L78.0913 62.7879C78.0992 62.7675 78.1055 62.7197 78.1055 62.6815C78.1055 62.6434 78.1221 62.5047 78.1424 62.3733C78.1627 62.242 78.2102 61.9397 78.2481 61.7016C78.286 61.4635 78.3427 61.1054 78.3741 60.9059C78.4055 60.7064 78.4439 60.451 78.4593 60.3384C78.4748 60.2258 78.4937 60.1336 78.5013 60.1336C78.5089 60.1336 78.5414 60.1834 78.5735 60.2442L78.632 60.3548L78.7617 60.4855L78.8914 60.6162L79.0511 60.6802L79.2107 60.7441L79.401 60.7688L79.5913 60.7934L79.8328 60.7786L80.0744 60.7638L80.3359 60.6961L80.5974 60.6284L80.7378 60.5643C80.815 60.5291 80.9518 60.4522 81.0419 60.3935L81.2057 60.2868L81.3584 60.1342C81.4424 60.0502 81.5608 59.9156 81.6216 59.835C81.6824 59.7544 81.7321 59.6826 81.7321 59.6754C81.7321 59.6682 81.762 59.6183 81.7985 59.5645C81.835 59.5107 81.9097 59.3614 81.9645 59.2327C82.0193 59.1039 82.1049 58.8723 82.1548 58.7178L82.2455 58.437L82.2924 58.1937C82.3181 58.0599 82.3513 57.8388 82.3661 57.7023L82.3929 57.4541L82.3774 57.2435L82.3619 57.0329L82.3131 56.8222L82.2642 56.6116L82.1852 56.4539L82.1062 56.2962L81.9535 56.1344L81.8009 55.9725L81.6203 55.8791L81.4397 55.7858L81.2408 55.7381L81.0419 55.6905L80.843 55.6759L80.6442 55.6613L80.4226 55.6868L80.2011 55.7122L80.0203 55.7584L79.8394 55.8046L79.6823 55.8773C79.596 55.9173 79.4702 55.9853 79.403 56.0283C79.3357 56.0713 79.2664 56.1208 79.2488 56.1383C79.2313 56.1558 79.1893 56.1882 79.1555 56.2103L79.0941 56.2504L79.137 56.0449C79.1607 55.9318 79.1804 55.8262 79.1809 55.8101L79.1818 55.7808H78.7529H78.3239L78.2487 56.2547C78.2073 56.5154 78.142 56.9182 78.1035 57.1499C78.0651 57.3815 78.0071 57.7291 77.9747 57.9221C77.9422 58.1152 77.8844 58.4575 77.8461 58.6827C77.8078 58.908 77.7446 59.266 77.7056 59.4784L77.5785 60.1687L77.4494 60.8708C77.4093 61.0896 77.3448 61.4371 77.3061 61.6431C77.2674 61.849 77.2044 62.1755 77.1661 62.3686C77.1279 62.5616 77.0908 62.7433 77.0838 62.7722L77.071 62.8249H77.5741ZM79.5445 60.1309L79.7398 60.1192L79.9352 60.1074L80.1337 60.0399L80.3323 59.9723L80.418 59.9083C80.4652 59.8731 80.5406 59.8126 80.5857 59.7739C80.6307 59.7353 80.7064 59.6493 80.7539 59.583C80.8014 59.5167 80.8842 59.3791 80.9379 59.2773L81.0355 59.0922L81.1153 58.8636C81.1591 58.7379 81.222 58.5167 81.2551 58.3722L81.3152 58.1094L81.3272 57.6647L81.3392 57.2201L81.3 57.0696C81.2784 56.9869 81.2361 56.8706 81.206 56.8111L81.1513 56.7031L81.0498 56.6011L80.9483 56.499L80.8273 56.4433L80.7063 56.3875L80.5348 56.351L80.3634 56.3144L80.1528 56.3268L79.9422 56.3392L79.7784 56.3899L79.6147 56.4406L79.4891 56.5118C79.4201 56.551 79.3032 56.6333 79.2294 56.6947L79.0953 56.8063L79.0341 57.1302C79.0004 57.3083 78.9404 57.6384 78.9008 57.8636C78.8612 58.0889 78.8017 58.4153 78.7685 58.5891L78.7082 58.905L78.6963 59.1067L78.6843 59.3084L78.7141 59.4344C78.7305 59.5036 78.7675 59.6129 78.7962 59.6773L78.8485 59.7943L78.9391 59.8808L79.0297 59.9674L79.1594 60.0266L79.2891 60.0858L79.4168 60.1084L79.5445 60.1309ZM84.5983 60.7625L84.8557 60.7655L85.1131 60.742C85.2546 60.7291 85.4862 60.7022 85.6278 60.6822C85.7694 60.6623 86.0139 60.6177 86.1712 60.583L86.4572 60.5201L86.4715 60.4146C86.4793 60.3566 86.5115 60.1839 86.5429 60.0309L86.6 59.7526L86.5874 59.74L86.5748 59.7274L86.4874 59.7697C86.4393 59.7929 86.2895 59.8483 86.1545 59.8928L85.909 59.9737L85.6514 60.0236L85.3938 60.0735L84.9844 60.0743L84.5749 60.0751L84.4345 60.0303C84.3573 60.0056 84.2438 59.9605 84.1822 59.93L84.0702 59.8746L83.9778 59.7911L83.8854 59.7075L83.8133 59.5815L83.7411 59.4554L83.6959 59.2973L83.6507 59.1392L83.6504 58.8466L83.6501 58.554L83.6902 58.293L83.7304 58.0319L84.0824 58.0155L84.4345 57.999L85.736 58.0074L87.0375 58.0157L87.0768 57.849C87.0985 57.7573 87.1315 57.5677 87.1503 57.4278L87.1844 57.1733L87.1851 56.9592L87.1859 56.7451L87.1488 56.5853L87.1117 56.4254L87.0505 56.3196C87.0168 56.2614 86.9574 56.177 86.9185 56.1321C86.8796 56.0873 86.8102 56.024 86.7643 55.9915C86.7183 55.959 86.628 55.9045 86.5637 55.8703L86.4467 55.808L86.2423 55.7588L86.0379 55.7095L85.7861 55.6854L85.5342 55.6613L85.3002 55.6766L85.0663 55.6918L84.7855 55.7457L84.5047 55.7997L84.3292 55.8698C84.2327 55.9084 84.0853 55.9788 84.0017 56.0262C83.918 56.0737 83.8022 56.1509 83.7443 56.1978C83.6864 56.2447 83.5861 56.336 83.5215 56.4006C83.4569 56.4652 83.3613 56.5812 83.309 56.6584C83.2568 56.7356 83.1768 56.8725 83.1312 56.9626C83.0855 57.0527 83.0261 57.1791 82.999 57.2435C82.972 57.3078 82.9229 57.4395 82.8899 57.536C82.8569 57.6325 82.805 57.8168 82.7745 57.9455C82.7441 58.0742 82.7025 58.2861 82.6819 58.4164L82.6446 58.6532L82.645 59.0014L82.6453 59.3497L82.6809 59.5018C82.7005 59.5854 82.7379 59.7118 82.764 59.7826C82.7901 59.8534 82.8385 59.9587 82.8714 60.0166C82.9044 60.0746 82.9748 60.1678 83.0278 60.2239C83.0809 60.2799 83.1769 60.365 83.2413 60.4129C83.3056 60.4608 83.4202 60.5282 83.4958 60.5626L83.6334 60.6253L83.8252 60.6716C83.9307 60.6972 84.0899 60.7274 84.179 60.7388C84.2681 60.7502 84.4568 60.7609 84.5983 60.7625ZM83.8613 57.4555C83.8613 57.4612 84.3913 57.4658 85.039 57.4658H86.2168L86.2415 57.2376L86.2662 57.0095L86.2446 56.8723L86.223 56.7352L86.1903 56.6734C86.1723 56.6394 86.1254 56.5769 86.086 56.5344L86.0143 56.4571L85.8838 56.3973L85.7532 56.3375L85.5735 56.3144L85.3938 56.2914L85.1599 56.3063C85.0312 56.3145 84.8838 56.3321 84.8323 56.3453C84.7808 56.3586 84.6703 56.4021 84.5866 56.4421L84.4345 56.5149L84.2798 56.6688L84.125 56.8228L84.0546 56.9629C84.0158 57.04 83.9565 57.18 83.9227 57.2741C83.8889 57.3682 83.8613 57.4498 83.8613 57.4555ZM92.0392 60.7626L92.2963 60.7655L92.5886 60.7308C92.7494 60.7118 92.9634 60.6802 93.0642 60.6607C93.165 60.6411 93.3282 60.6023 93.4269 60.5745C93.5256 60.5466 93.6148 60.5164 93.6252 60.5075C93.6357 60.4985 93.6636 60.3923 93.6872 60.2715C93.7108 60.1506 93.7406 59.9885 93.7534 59.9113C93.7661 59.8341 93.7727 59.7668 93.768 59.7617C93.7633 59.7567 93.7461 59.7632 93.7297 59.7762C93.7133 59.7892 93.5985 59.8376 93.4746 59.8836L93.2493 59.9673L92.9284 60.0295L92.6076 60.0916L92.3348 60.0823L92.062 60.073L91.9071 60.0193L91.7522 59.9655L91.6324 59.8608L91.5127 59.756L91.4333 59.6114L91.3539 59.4667L91.3161 59.2731L91.2782 59.0796L91.2785 58.8285L91.2787 58.5774L91.3247 58.2732L91.3706 57.9689L91.4193 57.8051C91.446 57.715 91.4763 57.6097 91.4865 57.5711C91.4968 57.5325 91.5397 57.4219 91.5819 57.3254C91.6241 57.2288 91.6994 57.0796 91.7492 56.9938L91.8397 56.8378L91.951 56.7225L92.0622 56.6072L92.18 56.5342L92.2978 56.4611L92.4491 56.4145C92.5323 56.3889 92.6793 56.3556 92.7758 56.3405L92.9513 56.3132L93.2087 56.3261L93.4661 56.339L93.7702 56.3999L94.0744 56.4608L94.1981 56.507C94.2661 56.5323 94.3248 56.5531 94.3284 56.5531C94.3321 56.5531 94.3484 56.4662 94.3647 56.36C94.381 56.2539 94.41 56.0792 94.4292 55.9718C94.4484 55.8645 94.4594 55.772 94.4538 55.7664C94.4481 55.7607 94.3567 55.7462 94.2506 55.7341C94.1445 55.722 93.8561 55.7005 93.6098 55.6864L93.1619 55.6606L92.846 55.6849L92.5302 55.7091L92.2962 55.7583L92.0622 55.8075L91.9115 55.8677C91.8287 55.9009 91.7073 55.9607 91.6418 56.0007C91.5763 56.0407 91.4929 56.0944 91.4565 56.1202C91.4201 56.1459 91.3097 56.2463 91.2111 56.3434L91.0319 56.5197L90.9319 56.6663C90.8769 56.7469 90.7817 56.9151 90.7204 57.0399L90.6089 57.2669L90.5235 57.5126C90.4765 57.6477 90.4109 57.8689 90.3777 58.004L90.3173 58.2498L90.2954 58.4721L90.2735 58.6944L90.2738 58.9869L90.274 59.2795L90.2961 59.4496L90.3182 59.6198L90.3883 59.7949L90.4583 59.9699L90.5393 60.0965L90.6202 60.223L90.7489 60.3497L90.8777 60.4764L91.0138 60.5484L91.1499 60.6204L91.3288 60.6701C91.4272 60.6974 91.5693 60.7288 91.6447 60.7398C91.72 60.7508 91.8976 60.7611 92.0392 60.7626ZM95.8877 60.754L95.8875 60.754L95.5718 60.763L95.434 60.7413C95.3582 60.7293 95.2241 60.6992 95.136 60.6742L94.9759 60.6289L94.8359 60.5438L94.696 60.4588L94.6172 60.3668C94.5739 60.3162 94.51 60.2224 94.4751 60.1583L94.4118 60.0419L94.3776 59.8634L94.3435 59.6849V59.4705V59.2561L94.3792 59.0517L94.4149 58.8473L94.4928 58.6655C94.5357 58.5656 94.6063 58.4311 94.6497 58.3668C94.6932 58.3024 94.792 58.1866 94.8694 58.1093L95.0101 57.9688L95.1888 57.8577C95.2871 57.7966 95.3772 57.7466 95.3891 57.7466C95.401 57.7466 95.4546 57.7254 95.5082 57.6996C95.5617 57.6737 95.7295 57.6185 95.8811 57.5769L96.1566 57.5014L96.9985 57.4983L97.8403 57.4953L97.8807 57.2992L97.921 57.1031L97.922 56.9243L97.9231 56.7456L97.8471 56.6322L97.771 56.5189L97.6352 56.4518L97.4994 56.3848L97.296 56.3491L97.0925 56.3135L96.7766 56.3265L96.4608 56.3395L96.1098 56.3993C95.9168 56.4322 95.6599 56.4857 95.539 56.5182C95.4181 56.5508 95.3157 56.574 95.3116 56.5699C95.3074 56.5657 95.3341 56.447 95.3707 56.3061C95.4074 56.1652 95.45 55.9894 95.4653 55.9154L95.4931 55.7808L95.6845 55.7801L95.8758 55.7794L96.1566 55.7453C96.311 55.7265 96.6129 55.7003 96.8273 55.687L97.2172 55.6629L97.5199 55.6859L97.8227 55.709L98.0425 55.7579L98.2624 55.8068L98.4099 55.8816L98.5574 55.9564L98.6473 56.0426L98.7371 56.1289L98.8034 56.2644L98.8697 56.3998L98.8676 56.6929L98.8654 56.986L98.8026 57.3254C98.7681 57.512 98.7096 57.8332 98.6727 58.0391C98.6357 58.2451 98.5787 58.5715 98.5459 58.7646C98.513 58.9577 98.4586 59.3105 98.4249 59.5486L98.3636 59.9815L98.3505 60.315L98.3374 60.6485H97.908H97.4785L97.479 60.5022C97.4792 60.4218 97.4943 60.2508 97.5125 60.1223C97.5307 59.9938 97.5425 59.8856 97.5388 59.8818C97.535 59.8781 97.4899 59.9305 97.4387 59.9985C97.3874 60.0664 97.2938 60.1731 97.2306 60.2357C97.1675 60.2983 97.058 60.3882 96.9872 60.4355C96.9164 60.4827 96.8006 60.5488 96.7298 60.5823L96.6011 60.6431L96.4023 60.694L96.2034 60.7449L95.8877 60.754ZM96.18 60.0996L95.9928 60.1094L95.8689 60.0778C95.8007 60.0604 95.6972 60.0217 95.639 59.9917L95.533 59.9372L95.4752 59.8685C95.4434 59.8307 95.3948 59.7564 95.3672 59.7034L95.3171 59.6071L95.3073 59.3821L95.2974 59.1572L95.3371 59.0207C95.3589 58.9457 95.4101 58.8154 95.4508 58.7313L95.5249 58.5783L95.6667 58.4375L95.8086 58.2966L95.9592 58.224L96.1098 58.1515L96.297 58.107L96.4842 58.0625H97.0691H97.6541L97.6911 58.0779L97.7281 58.0932L97.6969 58.2768C97.6798 58.3778 97.6389 58.5604 97.6061 58.6827C97.5733 58.805 97.5154 58.9847 97.4774 59.0821C97.4395 59.1796 97.4084 59.2657 97.4084 59.2735C97.4084 59.2814 97.3699 59.3524 97.3229 59.4313L97.2375 59.5747L97.0972 59.7138C97.02 59.7903 96.9484 59.8528 96.938 59.8528C96.9276 59.8528 96.8803 59.8792 96.8329 59.9113L96.7467 59.9699L96.5569 60.0299L96.3672 60.0899L96.18 60.0996ZM104.018 60.7652L103.796 60.7624H103.796C103.674 60.7608 103.508 60.7511 103.429 60.7407C103.349 60.7303 103.217 60.7036 103.136 60.6814C103.055 60.6592 102.925 60.6096 102.848 60.5713L102.708 60.5016L102.605 60.4173L102.502 60.333L102.412 60.2111L102.322 60.0891L102.273 59.9651C102.245 59.8969 102.209 59.7937 102.192 59.7358L102.161 59.6305L102.134 59.338L102.108 59.0454L102.143 58.6819L102.178 58.3183L102.25 58.0383C102.289 57.8843 102.349 57.6846 102.383 57.5945C102.417 57.5044 102.503 57.3116 102.573 57.166L102.7 56.9013L102.808 56.7463C102.868 56.6611 102.98 56.5231 103.058 56.4397L103.199 56.288L103.363 56.1667L103.527 56.0455L103.749 55.937L103.971 55.8286L104.205 55.7694L104.439 55.7103L104.697 55.6863L104.954 55.6623L105.258 55.686L105.562 55.7097L105.785 55.7655C105.907 55.7962 106.025 55.8289 106.046 55.8381L106.086 55.855L106.098 55.7769C106.105 55.734 106.142 55.5094 106.181 55.2777C106.219 55.046 106.282 54.6564 106.321 54.4118C106.36 54.1673 106.398 53.9014 106.406 53.8209L106.421 53.6746H106.922H107.422V53.6922C107.422 53.7018 107.397 53.8309 107.366 53.9789C107.335 54.1269 107.277 54.4165 107.237 54.6224C107.198 54.8284 107.138 55.1443 107.105 55.3245L106.977 56.0149C106.94 56.2144 106.878 56.5514 106.839 56.7637C106.8 56.9761 106.743 57.3026 106.711 57.4892C106.678 57.6758 106.63 57.9549 106.602 58.1094C106.575 58.2638 106.527 58.5587 106.496 58.7646C106.465 58.9706 106.408 59.4076 106.369 59.7358L106.299 60.3326V60.4905V60.6485H105.84H105.381L105.397 60.4905C105.405 60.4036 105.422 60.2799 105.433 60.2155C105.444 60.1512 105.459 60.0459 105.465 59.9815L105.477 59.8645L105.464 59.8996C105.456 59.9189 105.393 60.0111 105.323 60.1044L105.196 60.274L105.075 60.3804L104.954 60.4867L104.814 60.5586C104.736 60.5982 104.621 60.6455 104.556 60.6637C104.492 60.6819 104.345 60.7122 104.229 60.731L104.018 60.7652ZM104.195 60.0984L104.018 60.1078L103.899 60.0863C103.833 60.0745 103.728 60.0429 103.666 60.016L103.552 59.9671L103.456 59.8885L103.36 59.8099L103.289 59.6734L103.217 59.5369L103.185 59.3848L103.152 59.2327L103.155 58.9284L103.158 58.6242L103.196 58.3551L103.233 58.086L103.292 57.8987C103.324 57.7958 103.351 57.6986 103.351 57.6828C103.351 57.6671 103.383 57.5828 103.422 57.4956C103.46 57.4084 103.525 57.2739 103.565 57.1967C103.606 57.1194 103.681 56.9991 103.733 56.9291C103.785 56.8592 103.877 56.7539 103.938 56.6951C103.999 56.6363 104.096 56.5592 104.154 56.5237L104.259 56.4593L104.442 56.3956L104.626 56.3319L105.013 56.3317H105.399L105.621 56.3934C105.743 56.4273 105.873 56.4666 105.909 56.4808L105.975 56.5065L105.963 56.5708C105.955 56.6061 105.928 56.7614 105.901 56.9158C105.874 57.0703 105.821 57.3652 105.783 57.5711C105.745 57.777 105.687 58.0877 105.654 58.2615C105.621 58.4352 105.572 58.6564 105.547 58.7529C105.521 58.8494 105.485 58.9832 105.467 59.05C105.448 59.1169 105.404 59.2328 105.368 59.3075C105.333 59.3822 105.271 59.4907 105.231 59.5486C105.19 59.6065 105.122 59.6867 105.079 59.7269C105.036 59.767 104.943 59.8384 104.872 59.8854L104.743 59.971L104.557 60.03L104.371 60.089L104.195 60.0984ZM69.7597 60.6485H69.7597H69.1912V60.6105C69.1912 60.5896 69.2183 60.4395 69.2514 60.277C69.2846 60.1145 69.3208 59.9289 69.3319 59.8645C69.343 59.8002 69.3781 59.6211 69.4097 59.4667C69.4414 59.3122 69.5005 59.0121 69.5409 58.7997C69.5814 58.5873 69.6394 58.2819 69.6699 58.1211C69.7003 57.9602 69.7576 57.6495 69.7972 57.4307C69.8367 57.2119 69.9009 56.8328 69.9399 56.5882L70.0683 55.7808C70.1001 55.5813 70.1584 55.218 70.1978 54.9735C70.2373 54.7289 70.28 54.4604 70.2927 54.3767C70.3055 54.293 70.3324 54.1324 70.3526 54.0198L70.3893 53.8151H70.9626H71.5359L71.5217 53.8521C71.5139 53.8725 71.4863 54.0095 71.4604 54.1564C71.4345 54.3033 71.3972 54.4999 71.3776 54.5932C71.358 54.6865 71.3316 54.8366 71.3191 54.9267C71.3065 55.0168 71.2695 55.2326 71.2368 55.4064C71.2041 55.5802 71.157 55.8224 71.1322 55.9447C71.1073 56.0669 71.0716 56.2561 71.0526 56.365C71.0337 56.4739 71.0204 56.5648 71.0231 56.5671C71.0257 56.5693 71.3477 56.5788 71.7385 56.588L72.4492 56.6049L73.2976 56.5877L74.1461 56.5706L74.185 56.3103C74.2065 56.1671 74.2555 55.8604 74.2939 55.6287C74.3324 55.397 74.3893 55.0653 74.4205 54.8916C74.4517 54.7178 74.498 54.4545 74.5235 54.3065C74.549 54.1585 74.5769 53.9874 74.5856 53.9262L74.6013 53.8151H75.1793H75.7572L75.7178 53.9847C75.6961 54.078 75.6457 54.3334 75.6058 54.5522C75.5659 54.771 75.5066 55.0975 75.4741 55.2777C75.4416 55.4579 75.3831 55.7791 75.344 55.9915C75.3049 56.2038 75.242 56.5408 75.2042 56.7403C75.1665 56.9398 75.1094 57.2558 75.0774 57.4424C75.0453 57.629 74.9868 57.9765 74.9474 58.2147C74.908 58.4528 74.8449 58.8266 74.8073 59.0454C74.7696 59.2643 74.7174 59.5697 74.6912 59.7241C74.6651 59.8786 74.6327 60.0839 74.6193 60.1804C74.6059 60.277 74.5835 60.4218 74.5696 60.5022L74.5444 60.6485H73.9735H73.4027L73.4025 60.6192C73.4024 60.6031 73.4395 60.3846 73.4849 60.1336C73.5304 59.8827 73.5928 59.5457 73.6237 59.3848C73.6545 59.2239 73.7127 58.9132 73.7529 58.6944C73.7931 58.4756 73.8572 58.1281 73.8953 57.9221C73.9334 57.7162 73.9766 57.4869 73.9911 57.4126L74.0177 57.2774L74.0007 57.2604L73.9837 57.2435H72.4551H70.9265L70.9133 57.2566C70.9061 57.2638 70.8748 57.4112 70.8437 57.5842C70.8126 57.7572 70.7601 58.0567 70.7271 58.2498C70.6941 58.4428 70.6347 58.7956 70.595 59.0337L70.4663 59.806C70.4352 59.9926 70.3914 60.2586 70.3689 60.3969L70.3281 60.6485H69.7597ZM76.053 60.6485H76.5563L76.5705 60.6115C76.5783 60.5911 76.5847 60.5377 76.5847 60.4928C76.5847 60.4479 76.6164 60.2144 76.655 59.974C76.6937 59.7336 76.7576 59.3421 76.7971 59.1039C76.8365 58.8658 76.8947 58.5183 76.9265 58.3317C76.9582 58.145 77.0147 57.8344 77.0519 57.6413C77.0892 57.4482 77.1464 57.1481 77.179 56.9743C77.2116 56.8006 77.2758 56.47 77.3217 56.2397C77.3675 56.0094 77.4107 55.8118 77.4177 55.8005L77.4304 55.7799L76.9214 55.7862L76.4125 55.7925L76.3701 56.0968C76.3468 56.2641 76.2958 56.5958 76.2568 56.8339C76.2178 57.0721 76.1589 57.4354 76.1258 57.6413C76.0927 57.8472 76.035 58.179 75.9976 58.3785L75.8701 59.0571C75.8374 59.2309 75.7788 59.5363 75.7398 59.7358C75.7008 59.9353 75.6485 60.1986 75.6235 60.3209C75.5986 60.4431 75.5718 60.5669 75.564 60.5958L75.5498 60.6485H76.053ZM88.3232 60.6485H87.8236V60.6485H87.3241V60.6279C87.3241 60.6167 87.339 60.535 87.3572 60.4466C87.3754 60.3581 87.4225 60.1225 87.4619 59.923C87.5013 59.7235 87.5648 59.397 87.6031 59.1975C87.6414 58.998 87.6994 58.6926 87.7321 58.5189C87.7648 58.3451 87.8229 58.0134 87.8611 57.7817C87.8993 57.55 87.9573 57.192 87.99 56.986C88.0226 56.7801 88.0757 56.4501 88.1079 56.2526C88.1401 56.0552 88.1664 55.8683 88.1664 55.8372V55.7808H88.6125H89.0586L89.0462 55.8218C89.0394 55.8443 89.0118 55.9891 88.9849 56.1436C88.958 56.298 88.9268 56.4665 88.9156 56.518L88.8953 56.6116L88.9288 56.5648C88.9472 56.5391 89.0165 56.4443 89.0827 56.3542C89.1489 56.2641 89.2544 56.14 89.3171 56.0785C89.3799 56.017 89.4881 55.9302 89.5577 55.8856C89.6273 55.8411 89.7402 55.7841 89.8086 55.759C89.877 55.7339 90.0013 55.7012 90.085 55.6864L90.2371 55.6595L90.354 55.6739C90.4184 55.6819 90.5474 55.7116 90.6407 55.74C90.734 55.7684 90.8103 55.7982 90.8103 55.8064C90.8103 55.8145 90.784 55.9505 90.7518 56.1085C90.7196 56.2664 90.6933 56.4206 90.6933 56.451C90.6933 56.4814 90.687 56.5063 90.6794 56.5063C90.6717 56.5063 90.6059 56.4885 90.5331 56.4667L90.4008 56.4272L90.1318 56.4258L89.8627 56.4244L89.6867 56.5085L89.5106 56.5926L89.3679 56.7248L89.2251 56.857L89.1185 57.0151C89.0598 57.1021 88.9743 57.2549 88.9284 57.3547C88.8825 57.4545 88.8449 57.5506 88.8449 57.5683C88.8449 57.5859 88.8292 57.6448 88.8101 57.6991C88.7909 57.7535 88.7341 58.0049 88.6838 58.2579C88.6336 58.5108 88.5602 58.9179 88.5207 59.1625C88.4811 59.407 88.4273 59.7463 88.401 59.9164C88.3747 60.0865 88.3464 60.3208 88.3382 60.4371L88.3232 60.6485ZM99.6819 60.6485H100.193V60.4921V60.3358L100.252 59.948C100.284 59.7348 100.337 59.3971 100.37 59.1976C100.403 58.9981 100.444 58.7453 100.461 58.6359C100.479 58.5265 100.524 58.2896 100.563 58.1094C100.601 57.9292 100.649 57.7343 100.67 57.6764C100.69 57.6185 100.707 57.5577 100.707 57.5414C100.707 57.525 100.751 57.4199 100.804 57.3077L100.9 57.1038L101.027 56.9347L101.155 56.7657L101.294 56.661C101.37 56.6035 101.493 56.5271 101.567 56.4913L101.702 56.4262L101.994 56.4282L102.287 56.4302L102.402 56.4672L102.517 56.5041L102.536 56.4922L102.556 56.4802L102.557 56.4055C102.557 56.3644 102.582 56.2116 102.612 56.0659L102.667 55.8009L102.606 55.7769C102.572 55.7636 102.491 55.7362 102.427 55.7159L102.31 55.6791L102.1 55.6796L101.889 55.6802L101.717 55.7405L101.546 55.8009L101.417 55.8786L101.288 55.9564L101.121 56.1319L100.953 56.3074L100.863 56.4436C100.813 56.5184 100.77 56.5764 100.766 56.5723C100.762 56.5682 100.789 56.4121 100.826 56.2255C100.863 56.0389 100.893 55.8625 100.894 55.8335L100.895 55.7808H100.462H100.029V55.7958C100.029 55.804 100.007 55.954 99.9809 56.1292C99.9545 56.3045 99.9016 56.6426 99.8632 56.8808C99.8249 57.1189 99.762 57.5032 99.7234 57.7349C99.6848 57.9666 99.6267 58.2983 99.5942 58.4721C99.5617 58.6459 99.504 58.9513 99.466 59.1508C99.428 59.3503 99.3655 59.6715 99.3271 59.8645L99.2143 60.432L99.1711 60.6485L99.6819 60.6485ZM77.1847 54.9384L77.0426 54.9378L76.9006 54.9373L76.8025 54.8928L76.7044 54.8483L76.6536 54.7486L76.6028 54.649L76.6131 54.4485L76.6234 54.248L76.678 54.1193L76.7326 53.9906L76.8021 53.9161L76.8716 53.8416L76.9914 53.7879L77.1112 53.7343L77.2871 53.7343H77.463L77.5444 53.7848L77.6259 53.8352L77.6727 53.9129L77.7195 53.9906L77.7176 54.1895L77.7157 54.3884L77.6631 54.5235L77.6104 54.6586L77.5105 54.76L77.4106 54.8614L77.2976 54.8999L77.1847 54.9384Z" fill="#B3131B"/>
</svg>
