<svg width="127" height="22" viewBox="0 0 127 22" fill="none" xmlns="http://www.w3.org/2000/svg">
<path d="M21.8969 14.9886L13.2021 7.39291L0 7.37915L8.70898 14.9886H21.8969Z" fill="#33794A"/>
<path d="M19.2046 3.66573C17.0286 1.72975 14.0534 0.63916 10.9479 0.63916C7.84239 0.63916 4.8672 1.72975 2.69123 3.66573C1.49872 4.72076 0.580753 5.98817 0 7.38147H21.8958C21.3151 5.98817 20.3971 4.72076 19.2046 3.66573Z" fill="#83AF38"/>
<path d="M0 14.9888C0.593144 16.2999 1.50968 17.4807 2.68441 18.4472C7.24838 22.2257 14.6485 22.2257 19.2125 18.4472C20.3872 17.4807 21.3037 16.2999 21.8969 14.9888L0 14.9888Z" fill="#83AF38"/>
<path d="M33.6824 13.0375C33.6824 12.6875 33.9413 12.5435 34.2479 12.5435H34.7661C35.0958 12.5435 35.2134 12.7701 35.1903 13.1609C35.143 13.9023 35.3315 14.7257 36.3206 14.7257C37.3576 14.7257 37.6164 14.0669 37.6164 13.2848C37.6164 12.3994 36.6976 11.782 35.9442 11.3086C35.0485 10.7319 33.7764 9.7443 33.7764 8.44746C33.7764 6.80061 34.7188 5.8125 36.4388 5.8125C38.1587 5.8125 39.0087 6.49188 39.0087 8.50893C39.0087 8.87959 38.7257 9.00299 38.4433 9.00299H37.9251C37.5949 9.00299 37.4773 8.77683 37.5009 8.38553C37.5481 7.74743 37.4536 7.02677 36.4409 7.02677C35.6397 7.02677 35.2155 7.52082 35.2155 8.26213C35.2155 9.08556 35.8282 9.64108 36.4645 10.0512C37.4515 10.6911 39.0539 11.7393 39.0539 13.1614C39.0539 14.4582 38.5588 15.9404 36.3206 15.9404C34.6248 15.9399 33.6824 15.0752 33.6824 13.0375Z" fill="#3A3D3D"/>
<path fill-rule="evenodd" clip-rule="evenodd" d="M43.483 5.8125C41.0563 5.8125 40.5381 7.87083 40.5381 10.8764C40.5381 13.8816 41.0327 15.9399 43.4583 15.939C45.2486 15.939 46.0261 14.9931 46.0261 13.1407C46.0261 12.7701 45.7432 12.6467 45.4607 12.6467H45.0601C44.7304 12.6467 44.6123 12.8728 44.6359 13.2641C44.6601 13.6963 44.5892 14.7257 43.505 14.7257C42.3757 14.7257 42.14 13.6142 42.14 11.0205H45.9096C46.0053 10.4614 46.0604 9.89754 46.0744 9.33235C46.0744 6.71804 45.2733 5.8125 43.483 5.8125ZM44.6369 8.94232C44.6369 9.39509 44.6133 9.68317 44.5902 9.92997H42.1625C42.1625 7.83035 42.5158 7.02757 43.4819 7.02757C44.472 7.02757 44.6369 7.81017 44.6369 8.94232Z" fill="#3A3D3D"/>
<path fill-rule="evenodd" clip-rule="evenodd" d="M53.3895 5.88002C52.9921 5.88002 52.5348 6.08599 52.2035 6.4805C52.027 6.32892 51.8269 6.19982 51.6092 6.097C51.5902 6.08876 51.5706 6.07997 51.55 6.07079C51.3188 5.96754 50.9748 5.81396 50.336 5.81396C48.7153 5.81396 47.6505 6.88602 47.6505 9.19207C47.6505 10.6485 48.0905 11.6192 48.8056 12.1252C48.3425 12.4486 48.0884 12.8936 48.0884 13.5207C48.0884 14.1074 48.3199 14.512 48.7132 14.8556C47.8569 15.3818 47.3938 16.3121 47.3938 17.3034C47.3938 18.8406 48.4816 20.1553 50.5187 20.1553C52.5558 20.1553 53.6441 18.8406 53.6441 17.3034C53.6441 15.7662 52.5563 14.3904 50.5187 14.3904C50.3327 14.3929 50.1471 14.4066 49.9632 14.4313C49.6855 14.2693 49.5238 13.9858 49.5238 13.5207C49.5238 13.0161 49.7779 12.6913 50.1013 12.55C50.136 12.55 50.1765 12.555 50.2171 12.5601C50.2576 12.5651 50.2982 12.5702 50.3328 12.5702C51.953 12.5702 53.0183 11.4981 53.0183 9.19207C53.0183 8.40626 52.8955 7.77275 52.6749 7.27365C52.8034 7.25197 52.9337 7.23954 53.0645 7.23649C53.2493 7.23649 53.3653 7.25668 53.5738 7.35806C53.6618 7.41208 53.7671 7.44034 53.8746 7.4388C54.1061 7.4388 54.2216 7.31769 54.2216 7.11539V6.50711C54.2227 6.08232 53.8757 5.88002 53.3895 5.88002ZM50.5187 15.6432C51.6738 15.6432 52.2093 16.3717 52.2093 17.302C52.2093 18.2323 51.6764 18.9608 50.5187 18.9608C49.3611 18.9608 48.8292 18.2323 48.8292 17.302C48.8292 16.3717 49.3616 15.6432 50.5187 15.6432ZM49.0838 9.19143C49.0838 10.5062 49.3364 11.4975 50.3339 11.4975C51.2831 11.4975 51.584 10.5062 51.584 9.19143C51.584 7.8767 51.2831 6.88538 50.3339 6.88538C49.3385 6.88538 49.0838 7.8767 49.0838 9.19143Z" fill="#3A3D3D"/>
<path d="M55.0743 13.6963V6.32634C55.0702 6.22157 55.1159 6.12 55.2007 6.04583C55.2855 5.97167 55.4017 5.93155 55.5216 5.93504H56.2293C56.3492 5.93155 56.4654 5.97167 56.5502 6.04583C56.635 6.12 56.6808 6.22157 56.6766 6.32634V13.6963C56.6766 14.2927 56.936 14.6432 57.6663 14.6432C58.0905 14.6432 58.7263 14.4991 59.2209 14.2725V6.32634C59.2167 6.22149 59.2626 6.11984 59.3475 6.04566C59.4324 5.97148 59.5487 5.93142 59.6687 5.93504H60.377C60.497 5.93142 60.6133 5.97148 60.6982 6.04566C60.7831 6.11984 60.8289 6.22149 60.8248 6.32634V14.3954C60.8248 14.8689 61.0133 15.0542 61.4139 15.0542V15.301C61.4139 15.5891 61.0836 15.9391 60.2588 15.9391C59.811 15.9391 59.4577 15.7744 59.3138 15.301C58.7484 15.6716 57.9944 15.9391 57.2405 15.9391C56.0398 15.94 55.0743 15.3634 55.0743 13.6963Z" fill="#3A3D3D"/>
<path d="M63.1311 15.4253V6.32639C63.127 6.22162 63.1728 6.12005 63.2575 6.04588C63.3423 5.97172 63.4585 5.9316 63.5784 5.93509H64.2851C64.4054 5.93108 64.5221 5.97096 64.6074 6.04519C64.6926 6.11942 64.7387 6.22129 64.7345 6.32639V6.59383C65.3939 6.05849 66.0775 5.93509 66.3621 5.93509C66.8566 5.93509 67.2105 6.14106 67.2105 6.57319V7.19064C67.2105 7.39661 67.0924 7.52001 66.8566 7.52001C66.7478 7.51864 66.6416 7.49016 66.5506 7.4379C66.3406 7.33468 66.2209 7.3145 66.0324 7.3145C65.3257 7.3145 64.7366 7.70534 64.7366 7.70534V15.4253C64.7408 15.5302 64.6949 15.6318 64.61 15.706C64.5251 15.7802 64.4088 15.8203 64.2888 15.8166H63.5795C63.4594 15.8204 63.3429 15.7804 63.2579 15.7062C63.1729 15.632 63.127 15.5303 63.1311 15.4253Z" fill="#3A3D3D"/>
<path fill-rule="evenodd" clip-rule="evenodd" d="M70.9292 5.8125C69.0916 5.8125 68.0547 6.96529 68.0547 10.8764C68.0547 14.7871 69.0921 15.9399 70.9297 15.9399C72.7672 15.9399 73.8031 14.7876 73.8031 10.8764C73.8031 6.96529 72.7667 5.8125 70.9292 5.8125ZM70.9302 7.04821C71.6605 7.04821 72.2023 7.27482 72.2023 10.8772H72.2012C72.2012 14.4792 71.6605 14.7058 70.9302 14.7058C70.1999 14.7058 69.6581 14.4797 69.6581 10.8772C69.6581 7.27482 70.1999 7.04821 70.9302 7.04821Z" fill="#3A3D3D"/>
<path d="M75.2875 13.0375C75.2875 12.6875 75.5463 12.5435 75.8524 12.5435H76.3711C76.7008 12.5435 76.8184 12.7701 76.7948 13.1609C76.7481 13.9022 76.936 14.7257 77.9257 14.7257C78.9621 14.7257 79.2214 14.0669 79.2214 13.2848C79.2214 12.3994 78.3026 11.782 77.5487 11.3086C76.6562 10.7319 75.3815 9.7443 75.3815 8.44746C75.3815 6.80061 76.3265 5.8125 78.0433 5.8125C79.7601 5.8125 80.6117 6.49188 80.6117 8.50893C80.6117 8.87958 80.3287 9.00298 80.0462 9.00298H79.528C79.1978 9.00298 79.0802 8.77683 79.1038 8.38553C79.1506 7.74743 79.0566 7.02676 78.0433 7.02676C77.2426 7.02676 76.8184 7.52082 76.8184 8.26213C76.8184 9.08556 77.4311 9.64108 78.0669 10.0512C79.0566 10.6893 80.6584 11.7389 80.6584 13.1591C80.6584 14.4559 80.1638 15.9381 77.9283 15.9381C76.2325 15.9399 75.2875 15.0752 75.2875 13.0375Z" fill="#3A3D3D"/>
<path fill-rule="evenodd" clip-rule="evenodd" d="M85.2533 15.1991C85.4648 15.59 86.0303 15.9193 86.9254 15.9193C88.9284 15.9193 89.9884 14.5193 89.9884 10.8756C89.9884 7.23187 88.9284 5.83228 86.9254 5.83228C86.1012 5.83228 85.3709 6.12036 85.0879 6.6557C84.8291 6.09972 84.2872 5.93503 83.6273 5.93503H82.803C82.683 5.93141 82.5667 5.97147 82.4818 6.04565C82.3969 6.11984 82.351 6.22148 82.3552 6.32633V19.8718C82.3512 19.9766 82.3971 20.0781 82.482 20.1522C82.5669 20.2262 82.6831 20.2662 82.803 20.2626H84.8054C84.9253 20.2661 85.0414 20.2261 85.1263 20.152C85.2111 20.078 85.2571 19.9765 85.2533 19.8718V15.1991ZM85.2538 7.85205C85.4646 7.75635 85.6988 7.70691 85.9363 7.70801V7.70618C86.6194 7.70618 87.0903 7.97408 87.0914 10.8765C87.0914 13.7991 86.6189 14.0463 85.9363 14.0463C85.6988 14.0474 85.4646 13.998 85.2538 13.9023V7.85205Z" fill="#3A3D3D"/>
<path d="M96.2318 8.57092C96.1137 8.56154 96.0002 8.52602 95.9021 8.4677C95.7377 8.38388 95.5501 8.34118 95.3598 8.3443C94.6531 8.3443 94.0877 8.7356 94.0877 8.7356V15.4253C94.0918 15.5301 94.046 15.6316 93.9612 15.7058C93.8764 15.78 93.7602 15.8201 93.6403 15.8166H91.6379C91.5179 15.8202 91.4016 15.7802 91.3167 15.706C91.2318 15.6318 91.1859 15.5301 91.1901 15.4253V6.32634C91.1859 6.22149 91.2318 6.11984 91.3167 6.04566C91.4016 5.97148 91.5179 5.93142 91.6379 5.93504H92.4858C93.1452 5.93504 93.6167 6.24377 93.7816 6.73782C94.3234 6.22312 95.0064 5.93504 95.7136 5.93504C96.2082 5.93504 96.5615 6.14101 96.5615 6.57314V8.21999C96.5615 8.42688 96.467 8.57092 96.2318 8.57092Z" fill="#3A3D3D"/>
<path fill-rule="evenodd" clip-rule="evenodd" d="M97.0331 10.8764C97.0331 14.7871 98.7058 15.9399 100.849 15.9399C103.017 15.9399 104.666 14.7876 104.666 10.8764C104.666 6.96529 103.017 5.8125 100.849 5.8125C98.7058 5.8125 97.0331 6.96575 97.0331 10.8764ZM99.9307 10.8783C99.9307 7.95523 100.237 7.72862 100.849 7.72862V7.72678C101.462 7.72678 101.768 7.95569 101.768 10.8783C101.768 13.8009 101.462 14.0275 100.849 14.0275C100.237 14.0275 99.9307 13.8013 99.9307 10.8783Z" fill="#3A3D3D"/>
<path d="M117.764 15.8166H115.762C115.642 15.8201 115.526 15.7799 115.441 15.7058C115.356 15.6316 115.311 15.53 115.315 15.4253V8.44749C115.315 7.93279 115.079 7.72682 114.584 7.72682C114.199 7.738 113.821 7.82237 113.477 7.97408V15.4253C113.481 15.53 113.435 15.6316 113.35 15.7058C113.265 15.7799 113.149 15.8201 113.029 15.8166H111.027C110.907 15.8202 110.791 15.7801 110.706 15.7059C110.621 15.6318 110.575 15.5301 110.579 15.4253V8.44749C110.579 7.93279 110.343 7.72682 109.849 7.72682C109.463 7.738 109.086 7.82238 108.741 7.97408V15.4253C108.746 15.53 108.7 15.6316 108.615 15.7058C108.53 15.7799 108.414 15.8201 108.294 15.8166H106.291C106.171 15.8201 106.055 15.7799 105.97 15.7058C105.886 15.6316 105.84 15.53 105.844 15.4253V6.32631C105.84 6.22155 105.886 6.11998 105.97 6.04581C106.055 5.97164 106.171 5.93152 106.291 5.93501H107.446C108.012 5.93501 108.506 6.16163 108.672 6.63504C109.275 6.10247 110.099 5.80552 110.956 5.81162C112.017 5.81162 112.7 6.16163 113.077 6.75844C113.736 6.2231 114.538 5.81162 115.692 5.81162C117.412 5.81162 118.212 6.71715 118.212 8.38464V15.4253C118.216 15.5301 118.171 15.6318 118.086 15.7059C118.001 15.7801 117.884 15.8202 117.764 15.8166Z" fill="#3A3D3D"/>
<path fill-rule="evenodd" clip-rule="evenodd" d="M119.367 10.8764C119.367 14.7871 121.04 15.9399 123.184 15.9399C125.351 15.9399 127 14.7876 127 10.8764C127 6.96529 125.351 5.8125 123.184 5.8125C121.04 5.8125 119.367 6.96575 119.367 10.8764ZM122.265 10.8783C122.265 7.95523 122.571 7.72862 123.184 7.72862V7.72678C123.799 7.72678 124.102 7.95569 124.102 10.8783C124.102 13.8009 123.796 14.0275 123.184 14.0275C122.571 14.0275 122.265 13.8013 122.265 10.8783Z" fill="#3A3D3D"/>
</svg>
